<mxfile host="app.diagrams.net" modified="2024-05-26T17:44:48.238Z" agent="Mozilla/5.0 (Macintosh; Intel Mac OS X 10_15_7) AppleWebKit/537.36 (KHTML, like Gecko) Chrome/125.0.0.0 Safari/537.36" etag="UO3vN-i4VIQoEqMvjaOi" version="24.4.8" type="device">
  <diagram name="Page-1" id="UZJR0gVoEl6saKFhVWv5">
    <mxGraphModel dx="2049" dy="2287" grid="1" gridSize="10" guides="1" tooltips="1" connect="1" arrows="1" fold="1" page="1" pageScale="1" pageWidth="827" pageHeight="1169" math="0" shadow="0">
      <root>
        <mxCell id="0" />
        <mxCell id="1" parent="0" />
        <mxCell id="8WFV7_VvVoEUuy8R9E2Z-68" value="" style="rounded=1;whiteSpace=wrap;html=1;" vertex="1" parent="1">
          <mxGeometry x="145" y="20" width="120" height="150" as="geometry" />
        </mxCell>
        <mxCell id="8WFV7_VvVoEUuy8R9E2Z-61" value="" style="rounded=1;whiteSpace=wrap;html=1;" vertex="1" parent="1">
          <mxGeometry x="416.15999999999997" y="-80" width="120" height="150" as="geometry" />
        </mxCell>
        <mxCell id="8WFV7_VvVoEUuy8R9E2Z-67" value="" style="rounded=1;whiteSpace=wrap;html=1;" vertex="1" parent="1">
          <mxGeometry x="-45" y="20" width="120" height="150" as="geometry" />
        </mxCell>
        <mxCell id="8WFV7_VvVoEUuy8R9E2Z-63" value="" style="rounded=1;whiteSpace=wrap;html=1;" vertex="1" parent="1">
          <mxGeometry x="530" y="250" width="120" height="150" as="geometry" />
        </mxCell>
        <mxCell id="8WFV7_VvVoEUuy8R9E2Z-62" value="" style="rounded=1;whiteSpace=wrap;html=1;" vertex="1" parent="1">
          <mxGeometry x="535" y="610" width="120" height="170" as="geometry" />
        </mxCell>
        <mxCell id="8WFV7_VvVoEUuy8R9E2Z-64" value="" style="rounded=1;whiteSpace=wrap;html=1;" vertex="1" parent="1">
          <mxGeometry x="-50" y="420" width="120" height="150" as="geometry" />
        </mxCell>
        <mxCell id="8WFV7_VvVoEUuy8R9E2Z-56" value="" style="rounded=1;whiteSpace=wrap;html=1;" vertex="1" parent="1">
          <mxGeometry x="365" y="850" width="120" height="150" as="geometry" />
        </mxCell>
        <mxCell id="8WFV7_VvVoEUuy8R9E2Z-55" value="" style="rounded=1;whiteSpace=wrap;html=1;" vertex="1" parent="1">
          <mxGeometry x="535" y="420" width="120" height="150" as="geometry" />
        </mxCell>
        <mxCell id="8WFV7_VvVoEUuy8R9E2Z-4" value="" style="endArrow=none;html=1;rounded=0;entryX=1.018;entryY=0.328;entryDx=0;entryDy=0;entryPerimeter=0;" edge="1" parent="1">
          <mxGeometry width="50" height="50" relative="1" as="geometry">
            <mxPoint x="-52.16" y="454.97" as="sourcePoint" />
            <mxPoint x="69.99999999999986" y="454.1700000000001" as="targetPoint" />
          </mxGeometry>
        </mxCell>
        <mxCell id="8WFV7_VvVoEUuy8R9E2Z-51" value="" style="rounded=1;whiteSpace=wrap;html=1;" vertex="1" parent="1">
          <mxGeometry x="190" y="850" width="120" height="150" as="geometry" />
        </mxCell>
        <mxCell id="8WFV7_VvVoEUuy8R9E2Z-59" value="" style="rounded=1;whiteSpace=wrap;html=1;" vertex="1" parent="1">
          <mxGeometry y="850" width="120" height="150" as="geometry" />
        </mxCell>
        <mxCell id="8WFV7_VvVoEUuy8R9E2Z-65" value="" style="rounded=1;whiteSpace=wrap;html=1;" vertex="1" parent="1">
          <mxGeometry x="-370" y="850" width="120" height="150" as="geometry" />
        </mxCell>
        <mxCell id="8WFV7_VvVoEUuy8R9E2Z-52" value="" style="rounded=1;whiteSpace=wrap;html=1;" vertex="1" parent="1">
          <mxGeometry x="-170" y="850" width="120" height="150" as="geometry" />
        </mxCell>
        <mxCell id="8WFV7_VvVoEUuy8R9E2Z-54" value="" style="rounded=1;whiteSpace=wrap;html=1;" vertex="1" parent="1">
          <mxGeometry x="-588" y="635" width="120" height="150" as="geometry" />
        </mxCell>
        <mxCell id="8WFV7_VvVoEUuy8R9E2Z-57" value="" style="rounded=1;whiteSpace=wrap;html=1;" vertex="1" parent="1">
          <mxGeometry x="-595" y="395" width="120" height="150" as="geometry" />
        </mxCell>
        <mxCell id="8WFV7_VvVoEUuy8R9E2Z-7" value="Activité" style="text;html=1;align=center;verticalAlign=middle;resizable=0;points=[];autosize=1;strokeColor=none;fillColor=none;" vertex="1" parent="1">
          <mxGeometry x="-558" y="645" width="60" height="30" as="geometry" />
        </mxCell>
        <mxCell id="8WFV7_VvVoEUuy8R9E2Z-9" value="Employé" style="text;html=1;align=center;verticalAlign=middle;resizable=0;points=[];autosize=1;strokeColor=none;fillColor=none;" vertex="1" parent="1">
          <mxGeometry x="-30" y="430" width="70" height="30" as="geometry" />
        </mxCell>
        <mxCell id="8WFV7_VvVoEUuy8R9E2Z-31" value="Externe" style="text;html=1;align=center;verticalAlign=middle;resizable=0;points=[];autosize=1;strokeColor=none;fillColor=none;" vertex="1" parent="1">
          <mxGeometry x="-140" y="860" width="60" height="30" as="geometry" />
        </mxCell>
        <mxCell id="8WFV7_VvVoEUuy8R9E2Z-32" value="Accès_Temporaire" style="text;html=1;align=center;verticalAlign=middle;resizable=0;points=[];autosize=1;strokeColor=none;fillColor=none;" vertex="1" parent="1">
          <mxGeometry x="-370" y="850" width="120" height="30" as="geometry" />
        </mxCell>
        <mxCell id="8WFV7_VvVoEUuy8R9E2Z-33" value="Participation_Activité" style="text;html=1;align=center;verticalAlign=middle;resizable=0;points=[];autosize=1;strokeColor=none;fillColor=none;" vertex="1" parent="1">
          <mxGeometry x="-600" y="405" width="130" height="30" as="geometry" />
        </mxCell>
        <mxCell id="8WFV7_VvVoEUuy8R9E2Z-34" value="Document" style="text;html=1;align=center;verticalAlign=middle;resizable=0;points=[];autosize=1;strokeColor=none;fillColor=none;" vertex="1" parent="1">
          <mxGeometry x="550" y="620" width="80" height="30" as="geometry" />
        </mxCell>
        <mxCell id="8WFV7_VvVoEUuy8R9E2Z-35" value="Accès_Externe" style="text;html=1;align=center;verticalAlign=middle;resizable=0;points=[];autosize=1;strokeColor=none;fillColor=none;" vertex="1" parent="1">
          <mxGeometry x="375" y="860" width="100" height="30" as="geometry" />
        </mxCell>
        <mxCell id="8WFV7_VvVoEUuy8R9E2Z-36" value="Employé_Rôle" style="text;html=1;align=center;verticalAlign=middle;resizable=0;points=[];autosize=1;strokeColor=none;fillColor=none;" vertex="1" parent="1">
          <mxGeometry y="860" width="100" height="30" as="geometry" />
        </mxCell>
        <mxCell id="8WFV7_VvVoEUuy8R9E2Z-37" value="Rôle" style="text;html=1;align=center;verticalAlign=middle;resizable=0;points=[];autosize=1;strokeColor=none;fillColor=none;" vertex="1" parent="1">
          <mxGeometry x="225" y="860" width="50" height="30" as="geometry" />
        </mxCell>
        <mxCell id="8WFV7_VvVoEUuy8R9E2Z-38" value="Document_Coffre" style="text;html=1;align=center;verticalAlign=middle;resizable=0;points=[];autosize=1;strokeColor=none;fillColor=none;" vertex="1" parent="1">
          <mxGeometry x="530" y="260" width="120" height="30" as="geometry" />
        </mxCell>
        <mxCell id="8WFV7_VvVoEUuy8R9E2Z-39" value="Coffre_Fort" style="text;html=1;align=center;verticalAlign=middle;resizable=0;points=[];autosize=1;strokeColor=none;fillColor=none;" vertex="1" parent="1">
          <mxGeometry x="555" y="430" width="80" height="30" as="geometry" />
        </mxCell>
        <mxCell id="8WFV7_VvVoEUuy8R9E2Z-42" value="Resultat_Vote" style="text;html=1;align=center;verticalAlign=middle;resizable=0;points=[];autosize=1;strokeColor=none;fillColor=none;" vertex="1" parent="1">
          <mxGeometry x="-40" y="30" width="100" height="30" as="geometry" />
        </mxCell>
        <mxCell id="8WFV7_VvVoEUuy8R9E2Z-43" value="Vote" style="text;html=1;align=center;verticalAlign=middle;resizable=0;points=[];autosize=1;strokeColor=none;fillColor=none;" vertex="1" parent="1">
          <mxGeometry x="451.15999999999997" y="-80" width="50" height="30" as="geometry" />
        </mxCell>
        <mxCell id="8WFV7_VvVoEUuy8R9E2Z-44" value="Participation_Vote" style="text;html=1;align=center;verticalAlign=middle;resizable=0;points=[];autosize=1;strokeColor=none;fillColor=none;" vertex="1" parent="1">
          <mxGeometry x="145" y="30" width="120" height="30" as="geometry" />
        </mxCell>
        <mxCell id="8WFV7_VvVoEUuy8R9E2Z-73" value="" style="endArrow=none;html=1;rounded=0;entryX=1.018;entryY=0.328;entryDx=0;entryDy=0;entryPerimeter=0;" edge="1" parent="1">
          <mxGeometry width="50" height="50" relative="1" as="geometry">
            <mxPoint x="-46.079999999999984" y="57.940000000000055" as="sourcePoint" />
            <mxPoint x="76.07999999999987" y="57.1400000000001" as="targetPoint" />
          </mxGeometry>
        </mxCell>
        <mxCell id="8WFV7_VvVoEUuy8R9E2Z-74" value="" style="endArrow=none;html=1;rounded=0;entryX=1.018;entryY=0.328;entryDx=0;entryDy=0;entryPerimeter=0;" edge="1" parent="1">
          <mxGeometry width="50" height="50" relative="1" as="geometry">
            <mxPoint x="142.84" y="60.80000000000007" as="sourcePoint" />
            <mxPoint x="264.9999999999999" y="60.000000000000114" as="targetPoint" />
          </mxGeometry>
        </mxCell>
        <mxCell id="8WFV7_VvVoEUuy8R9E2Z-75" value="" style="endArrow=none;html=1;rounded=0;entryX=1.018;entryY=0.328;entryDx=0;entryDy=0;entryPerimeter=0;" edge="1" parent="1">
          <mxGeometry width="50" height="50" relative="1" as="geometry">
            <mxPoint x="527.8399999999999" y="290.80000000000007" as="sourcePoint" />
            <mxPoint x="649.9999999999998" y="290.0000000000001" as="targetPoint" />
          </mxGeometry>
        </mxCell>
        <mxCell id="8WFV7_VvVoEUuy8R9E2Z-76" value="" style="endArrow=none;html=1;rounded=0;entryX=1.018;entryY=0.328;entryDx=0;entryDy=0;entryPerimeter=0;" edge="1" parent="1">
          <mxGeometry width="50" height="50" relative="1" as="geometry">
            <mxPoint x="-170" y="889.3700000000001" as="sourcePoint" />
            <mxPoint x="-47.840000000000146" y="888.5700000000002" as="targetPoint" />
          </mxGeometry>
        </mxCell>
        <mxCell id="8WFV7_VvVoEUuy8R9E2Z-77" value="" style="endArrow=none;html=1;rounded=0;entryX=1.018;entryY=0.328;entryDx=0;entryDy=0;entryPerimeter=0;" edge="1" parent="1">
          <mxGeometry width="50" height="50" relative="1" as="geometry">
            <mxPoint x="414" y="-49.199999999999946" as="sourcePoint" />
            <mxPoint x="536.1599999999999" y="-49.9999999999999" as="targetPoint" />
          </mxGeometry>
        </mxCell>
        <mxCell id="8WFV7_VvVoEUuy8R9E2Z-78" value="" style="endArrow=none;html=1;rounded=0;entryX=1.018;entryY=0.328;entryDx=0;entryDy=0;entryPerimeter=0;" edge="1" parent="1">
          <mxGeometry width="50" height="50" relative="1" as="geometry">
            <mxPoint x="535" y="650.8000000000001" as="sourcePoint" />
            <mxPoint x="657.1599999999999" y="650.0000000000001" as="targetPoint" />
          </mxGeometry>
        </mxCell>
        <mxCell id="8WFV7_VvVoEUuy8R9E2Z-79" value="" style="endArrow=none;html=1;rounded=0;entryX=1.018;entryY=0.328;entryDx=0;entryDy=0;entryPerimeter=0;" edge="1" parent="1">
          <mxGeometry width="50" height="50" relative="1" as="geometry">
            <mxPoint x="-597.16" y="435.80000000000007" as="sourcePoint" />
            <mxPoint x="-475.0000000000001" y="435.0000000000001" as="targetPoint" />
          </mxGeometry>
        </mxCell>
        <mxCell id="8WFV7_VvVoEUuy8R9E2Z-80" value="" style="endArrow=none;html=1;rounded=0;entryX=1.018;entryY=0.328;entryDx=0;entryDy=0;entryPerimeter=0;" edge="1" parent="1">
          <mxGeometry width="50" height="50" relative="1" as="geometry">
            <mxPoint x="-372.15999999999997" y="880.8000000000001" as="sourcePoint" />
            <mxPoint x="-250.0000000000001" y="880.0000000000001" as="targetPoint" />
          </mxGeometry>
        </mxCell>
        <mxCell id="8WFV7_VvVoEUuy8R9E2Z-81" value="" style="endArrow=none;html=1;rounded=0;entryX=1.018;entryY=0.328;entryDx=0;entryDy=0;entryPerimeter=0;" edge="1" parent="1">
          <mxGeometry width="50" height="50" relative="1" as="geometry">
            <mxPoint x="535" y="459.37000000000006" as="sourcePoint" />
            <mxPoint x="657.1599999999999" y="458.5700000000001" as="targetPoint" />
          </mxGeometry>
        </mxCell>
        <mxCell id="8WFV7_VvVoEUuy8R9E2Z-83" value="" style="endArrow=none;html=1;rounded=0;entryX=1.018;entryY=0.328;entryDx=0;entryDy=0;entryPerimeter=0;" edge="1" parent="1">
          <mxGeometry width="50" height="50" relative="1" as="geometry">
            <mxPoint x="190" y="889.3700000000001" as="sourcePoint" />
            <mxPoint x="312.15999999999985" y="888.5700000000002" as="targetPoint" />
          </mxGeometry>
        </mxCell>
        <mxCell id="8WFV7_VvVoEUuy8R9E2Z-84" value="" style="endArrow=none;html=1;rounded=0;entryX=1.018;entryY=0.328;entryDx=0;entryDy=0;entryPerimeter=0;" edge="1" parent="1">
          <mxGeometry width="50" height="50" relative="1" as="geometry">
            <mxPoint x="362.84000000000003" y="889.3700000000001" as="sourcePoint" />
            <mxPoint x="484.9999999999999" y="888.5700000000002" as="targetPoint" />
          </mxGeometry>
        </mxCell>
        <mxCell id="8WFV7_VvVoEUuy8R9E2Z-85" value="" style="endArrow=none;html=1;rounded=0;entryX=1.018;entryY=0.328;entryDx=0;entryDy=0;entryPerimeter=0;" edge="1" parent="1">
          <mxGeometry width="50" height="50" relative="1" as="geometry">
            <mxPoint y="889.3700000000001" as="sourcePoint" />
            <mxPoint x="122.15999999999985" y="888.5700000000002" as="targetPoint" />
          </mxGeometry>
        </mxCell>
        <mxCell id="8WFV7_VvVoEUuy8R9E2Z-86" value="" style="endArrow=none;html=1;rounded=0;entryX=1.018;entryY=0.328;entryDx=0;entryDy=0;entryPerimeter=0;" edge="1" parent="1">
          <mxGeometry width="50" height="50" relative="1" as="geometry">
            <mxPoint x="-588" y="675.8000000000001" as="sourcePoint" />
            <mxPoint x="-465.84000000000015" y="675.0000000000001" as="targetPoint" />
          </mxGeometry>
        </mxCell>
        <mxCell id="8WFV7_VvVoEUuy8R9E2Z-126" style="edgeStyle=orthogonalEdgeStyle;rounded=0;orthogonalLoop=1;jettySize=auto;html=1;" edge="1" parent="1" source="8WFV7_VvVoEUuy8R9E2Z-87" target="8WFV7_VvVoEUuy8R9E2Z-88">
          <mxGeometry relative="1" as="geometry" />
        </mxCell>
        <mxCell id="8WFV7_VvVoEUuy8R9E2Z-87" value="&lt;ul style=&quot;text-align: start; text-wrap: wrap;&quot; class=&quot;ul1&quot;&gt;&lt;ul style=&quot;list-style-type: disc;&quot; class=&quot;ul1&quot;&gt;&lt;li style=&quot;margin: 0px; font-variant-numeric: normal; font-variant-east-asian: normal; font-variant-alternates: normal; font-kerning: auto; font-optical-sizing: auto; font-feature-settings: normal; font-variation-settings: normal; font-variant-position: normal; font-stretch: normal; line-height: normal; font-family: &amp;quot;Helvetica Neue&amp;quot;;&quot; class=&quot;li1&quot;&gt;&lt;font style=&quot;font-size: 14px;&quot;&gt;&lt;span style=&quot;font-variant-numeric: normal; font-variant-east-asian: normal; font-variant-alternates: normal; font-kerning: auto; font-optical-sizing: auto; font-feature-settings: normal; font-variation-settings: normal; font-variant-position: normal; line-height: normal; font-family: Menlo; font-stretch: normal; font-stretch: normal;&quot; class=&quot;s1&quot;&gt;&lt;/span&gt;ID_Vote (PK)&lt;/font&gt;&lt;/li&gt;&lt;li style=&quot;margin: 0px; font-variant-numeric: normal; font-variant-east-asian: normal; font-variant-alternates: normal; font-kerning: auto; font-optical-sizing: auto; font-feature-settings: normal; font-variation-settings: normal; font-variant-position: normal; font-stretch: normal; line-height: normal; font-family: &amp;quot;Helvetica Neue&amp;quot;;&quot; class=&quot;li1&quot;&gt;&lt;font size=&quot;3&quot; style=&quot;&quot;&gt;&lt;span style=&quot;font-variant-numeric: normal; font-variant-east-asian: normal; font-variant-alternates: normal; font-kerning: auto; font-optical-sizing: auto; font-feature-settings: normal; font-variation-settings: normal; font-variant-position: normal; font-stretch: normal; line-height: normal; font-family: Menlo;&quot; class=&quot;s1&quot;&gt;&lt;/span&gt;Titre&lt;/font&gt;&lt;/li&gt;&lt;li style=&quot;margin: 0px; font-variant-numeric: normal; font-variant-east-asian: normal; font-variant-alternates: normal; font-kerning: auto; font-optical-sizing: auto; font-feature-settings: normal; font-variation-settings: normal; font-variant-position: normal; font-stretch: normal; line-height: normal; font-family: &amp;quot;Helvetica Neue&amp;quot;;&quot; class=&quot;li1&quot;&gt;&lt;font size=&quot;3&quot;&gt;&lt;span style=&quot;font-variant-numeric: normal; font-variant-east-asian: normal; font-variant-alternates: normal; font-kerning: auto; font-optical-sizing: auto; font-feature-settings: normal; font-variation-settings: normal; font-variant-position: normal; font-stretch: normal; line-height: normal; font-family: Menlo;&quot; class=&quot;s1&quot;&gt;&lt;/span&gt;Description&lt;/font&gt;&lt;/li&gt;&lt;li style=&quot;margin: 0px; font-variant-numeric: normal; font-variant-east-asian: normal; font-variant-alternates: normal; font-kerning: auto; font-optical-sizing: auto; font-feature-settings: normal; font-variation-settings: normal; font-variant-position: normal; font-stretch: normal; line-height: normal; font-family: &amp;quot;Helvetica Neue&amp;quot;;&quot; class=&quot;li1&quot;&gt;&lt;font size=&quot;3&quot;&gt;&lt;span style=&quot;font-variant-numeric: normal; font-variant-east-asian: normal; font-variant-alternates: normal; font-kerning: auto; font-optical-sizing: auto; font-feature-settings: normal; font-variation-settings: normal; font-variant-position: normal; font-stretch: normal; line-height: normal; font-family: Menlo;&quot; class=&quot;s1&quot;&gt;&lt;/span&gt;Date_Début&lt;/font&gt;&lt;/li&gt;&lt;li style=&quot;margin: 0px; font-variant-numeric: normal; font-variant-east-asian: normal; font-variant-alternates: normal; font-kerning: auto; font-optical-sizing: auto; font-feature-settings: normal; font-variation-settings: normal; font-variant-position: normal; font-stretch: normal; line-height: normal; font-family: &amp;quot;Helvetica Neue&amp;quot;;&quot; class=&quot;li1&quot;&gt;&lt;font size=&quot;3&quot;&gt;&lt;span style=&quot;font-variant-numeric: normal; font-variant-east-asian: normal; font-variant-alternates: normal; font-kerning: auto; font-optical-sizing: auto; font-feature-settings: normal; font-variation-settings: normal; font-variant-position: normal; font-stretch: normal; line-height: normal; font-family: Menlo;&quot; class=&quot;s1&quot;&gt;&lt;/span&gt;Date_Fin&lt;/font&gt;&lt;/li&gt;&lt;li style=&quot;margin: 0px; font-variant-numeric: normal; font-variant-east-asian: normal; font-variant-alternates: normal; font-kerning: auto; font-optical-sizing: auto; font-feature-settings: normal; font-variation-settings: normal; font-variant-position: normal; font-stretch: normal; line-height: normal; font-family: &amp;quot;Helvetica Neue&amp;quot;;&quot; class=&quot;li1&quot;&gt;&lt;font size=&quot;3&quot;&gt;&lt;span style=&quot;font-variant-numeric: normal; font-variant-east-asian: normal; font-variant-alternates: normal; font-kerning: auto; font-optical-sizing: auto; font-feature-settings: normal; font-variation-settings: normal; font-variant-position: normal; line-height: normal; font-family: Menlo; font-stretch: normal;&quot; class=&quot;s1&quot;&gt;&lt;/span&gt;Modalité&lt;/font&gt;&lt;/li&gt;&lt;/ul&gt;&lt;/ul&gt;" style="text;html=1;align=center;verticalAlign=middle;resizable=0;points=[];autosize=1;strokeColor=none;fillColor=none;" vertex="1" parent="1">
          <mxGeometry x="350" y="-60" width="190" height="150" as="geometry" />
        </mxCell>
        <mxCell id="8WFV7_VvVoEUuy8R9E2Z-132" style="edgeStyle=orthogonalEdgeStyle;rounded=0;orthogonalLoop=1;jettySize=auto;html=1;" edge="1" parent="1" source="8WFV7_VvVoEUuy8R9E2Z-88" target="8WFV7_VvVoEUuy8R9E2Z-67">
          <mxGeometry relative="1" as="geometry">
            <Array as="points">
              <mxPoint x="170" y="230" />
              <mxPoint x="40" y="230" />
              <mxPoint x="40" y="190" />
              <mxPoint x="15" y="190" />
            </Array>
          </mxGeometry>
        </mxCell>
        <mxCell id="8WFV7_VvVoEUuy8R9E2Z-88" value="&lt;ul style=&quot;font-size: medium; text-align: start; text-wrap: wrap;&quot; class=&quot;ul1&quot;&gt;&lt;ul style=&quot;list-style-type: disc;&quot; class=&quot;ul1&quot;&gt;&lt;li style=&quot;margin: 0px; font-variant-numeric: normal; font-variant-east-asian: normal; font-variant-alternates: normal; font-kerning: auto; font-optical-sizing: auto; font-feature-settings: normal; font-variation-settings: normal; font-variant-position: normal; font-stretch: normal; font-size: 13px; line-height: normal; font-family: &amp;quot;Helvetica Neue&amp;quot;;&quot; class=&quot;li1&quot;&gt;&lt;span style=&quot;font-variant-numeric: normal; font-variant-east-asian: normal; font-variant-alternates: normal; font-kerning: auto; font-optical-sizing: auto; font-feature-settings: normal; font-variation-settings: normal; font-variant-position: normal; font-stretch: normal; font-size: 9px; line-height: normal; font-family: Menlo;&quot; class=&quot;s1&quot;&gt;&lt;/span&gt;ID_Participation (PK)&lt;/li&gt;&lt;li style=&quot;margin: 0px; font-variant-numeric: normal; font-variant-east-asian: normal; font-variant-alternates: normal; font-kerning: auto; font-optical-sizing: auto; font-feature-settings: normal; font-variation-settings: normal; font-variant-position: normal; font-stretch: normal; font-size: 13px; line-height: normal; font-family: &amp;quot;Helvetica Neue&amp;quot;;&quot; class=&quot;li1&quot;&gt;&lt;span style=&quot;font-variant-numeric: normal; font-variant-east-asian: normal; font-variant-alternates: normal; font-kerning: auto; font-optical-sizing: auto; font-feature-settings: normal; font-variation-settings: normal; font-variant-position: normal; font-stretch: normal; font-size: 9px; line-height: normal; font-family: Menlo;&quot; class=&quot;s1&quot;&gt;&lt;/span&gt;ID_Vote (FK)&lt;/li&gt;&lt;li style=&quot;margin: 0px; font-variant-numeric: normal; font-variant-east-asian: normal; font-variant-alternates: normal; font-kerning: auto; font-optical-sizing: auto; font-feature-settings: normal; font-variation-settings: normal; font-variant-position: normal; font-stretch: normal; font-size: 13px; line-height: normal; font-family: &amp;quot;Helvetica Neue&amp;quot;;&quot; class=&quot;li1&quot;&gt;&lt;span style=&quot;font-variant-numeric: normal; font-variant-east-asian: normal; font-variant-alternates: normal; font-kerning: auto; font-optical-sizing: auto; font-feature-settings: normal; font-variation-settings: normal; font-variant-position: normal; font-stretch: normal; font-size: 9px; line-height: normal; font-family: Menlo;&quot; class=&quot;s1&quot;&gt;&lt;/span&gt;ID_Employé (FK)&lt;/li&gt;&lt;li style=&quot;margin: 0px; font-variant-numeric: normal; font-variant-east-asian: normal; font-variant-alternates: normal; font-kerning: auto; font-optical-sizing: auto; font-feature-settings: normal; font-variation-settings: normal; font-variant-position: normal; font-stretch: normal; font-size: 13px; line-height: normal; font-family: &amp;quot;Helvetica Neue&amp;quot;;&quot; class=&quot;li1&quot;&gt;&lt;span style=&quot;font-variant-numeric: normal; font-variant-east-asian: normal; font-variant-alternates: normal; font-kerning: auto; font-optical-sizing: auto; font-feature-settings: normal; font-variation-settings: normal; font-variant-position: normal; font-stretch: normal; font-size: 9px; line-height: normal; font-family: Menlo;&quot; class=&quot;s1&quot;&gt;&lt;/span&gt;Date_Participation&lt;/li&gt;&lt;/ul&gt;&lt;/ul&gt;" style="text;html=1;align=center;verticalAlign=middle;resizable=0;points=[];autosize=1;strokeColor=none;fillColor=none;" vertex="1" parent="1">
          <mxGeometry x="60" y="60" width="220" height="110" as="geometry" />
        </mxCell>
        <mxCell id="8WFV7_VvVoEUuy8R9E2Z-89" value="&lt;ul style=&quot;font-size: medium; text-align: start; text-wrap: wrap;&quot; class=&quot;ul1&quot;&gt;&lt;ul style=&quot;list-style-type: disc;&quot; class=&quot;ul1&quot;&gt;&lt;li style=&quot;margin: 0px; font-variant-numeric: normal; font-variant-east-asian: normal; font-variant-alternates: normal; font-kerning: auto; font-optical-sizing: auto; font-feature-settings: normal; font-variation-settings: normal; font-variant-position: normal; font-stretch: normal; font-size: 13px; line-height: normal; font-family: &amp;quot;Helvetica Neue&amp;quot;;&quot; class=&quot;li1&quot;&gt;&lt;span style=&quot;font-variant-numeric: normal; font-variant-east-asian: normal; font-variant-alternates: normal; font-kerning: auto; font-optical-sizing: auto; font-feature-settings: normal; font-variation-settings: normal; font-variant-position: normal; font-stretch: normal; font-size: 9px; line-height: normal; font-family: Menlo;&quot; class=&quot;s1&quot;&gt;&lt;/span&gt;ID_Résultat (PK)&lt;/li&gt;&lt;li style=&quot;margin: 0px; font-variant-numeric: normal; font-variant-east-asian: normal; font-variant-alternates: normal; font-kerning: auto; font-optical-sizing: auto; font-feature-settings: normal; font-variation-settings: normal; font-variant-position: normal; font-stretch: normal; font-size: 13px; line-height: normal; font-family: &amp;quot;Helvetica Neue&amp;quot;;&quot; class=&quot;li1&quot;&gt;&lt;span style=&quot;font-variant-numeric: normal; font-variant-east-asian: normal; font-variant-alternates: normal; font-kerning: auto; font-optical-sizing: auto; font-feature-settings: normal; font-variation-settings: normal; font-variant-position: normal; font-stretch: normal; font-size: 9px; line-height: normal; font-family: Menlo;&quot; class=&quot;s1&quot;&gt;&lt;/span&gt;ID_Participation (FK)&lt;/li&gt;&lt;li style=&quot;margin: 0px; font-variant-numeric: normal; font-variant-east-asian: normal; font-variant-alternates: normal; font-kerning: auto; font-optical-sizing: auto; font-feature-settings: normal; font-variation-settings: normal; font-variant-position: normal; font-stretch: normal; font-size: 13px; line-height: normal; font-family: &amp;quot;Helvetica Neue&amp;quot;;&quot; class=&quot;li1&quot;&gt;&lt;span style=&quot;font-variant-numeric: normal; font-variant-east-asian: normal; font-variant-alternates: normal; font-kerning: auto; font-optical-sizing: auto; font-feature-settings: normal; font-variation-settings: normal; font-variant-position: normal; font-stretch: normal; font-size: 9px; line-height: normal; font-family: Menlo;&quot; class=&quot;s1&quot;&gt;&lt;/span&gt;ID_Option (FK)&lt;/li&gt;&lt;/ul&gt;&lt;/ul&gt;" style="text;html=1;align=center;verticalAlign=middle;resizable=0;points=[];autosize=1;strokeColor=none;fillColor=none;" vertex="1" parent="1">
          <mxGeometry x="-130" y="60" width="220" height="90" as="geometry" />
        </mxCell>
        <mxCell id="8WFV7_VvVoEUuy8R9E2Z-90" value="" style="rounded=1;whiteSpace=wrap;html=1;" vertex="1" parent="1">
          <mxGeometry x="-485" y="30" width="120" height="150" as="geometry" />
        </mxCell>
        <mxCell id="8WFV7_VvVoEUuy8R9E2Z-91" value="" style="rounded=1;whiteSpace=wrap;html=1;" vertex="1" parent="1">
          <mxGeometry x="-225" y="30" width="120" height="150" as="geometry" />
        </mxCell>
        <mxCell id="8WFV7_VvVoEUuy8R9E2Z-92" value="" style="rounded=1;whiteSpace=wrap;html=1;" vertex="1" parent="1">
          <mxGeometry x="-560" y="210" width="120" height="150" as="geometry" />
        </mxCell>
        <mxCell id="8WFV7_VvVoEUuy8R9E2Z-93" value="Reponse" style="text;html=1;align=center;verticalAlign=middle;resizable=0;points=[];autosize=1;strokeColor=none;fillColor=none;" vertex="1" parent="1">
          <mxGeometry x="-540" y="220" width="70" height="30" as="geometry" />
        </mxCell>
        <mxCell id="8WFV7_VvVoEUuy8R9E2Z-94" value="Sondage" style="text;html=1;align=center;verticalAlign=middle;resizable=0;points=[];autosize=1;strokeColor=none;fillColor=none;" vertex="1" parent="1">
          <mxGeometry x="-200" y="30" width="70" height="30" as="geometry" />
        </mxCell>
        <mxCell id="8WFV7_VvVoEUuy8R9E2Z-95" value="Question" style="text;html=1;align=center;verticalAlign=middle;resizable=0;points=[];autosize=1;strokeColor=none;fillColor=none;" vertex="1" parent="1">
          <mxGeometry x="-460" y="40" width="70" height="30" as="geometry" />
        </mxCell>
        <mxCell id="8WFV7_VvVoEUuy8R9E2Z-96" value="" style="endArrow=none;html=1;rounded=0;entryX=1.018;entryY=0.328;entryDx=0;entryDy=0;entryPerimeter=0;" edge="1" parent="1">
          <mxGeometry width="50" height="50" relative="1" as="geometry">
            <mxPoint x="-561.0799999999999" y="247.94000000000005" as="sourcePoint" />
            <mxPoint x="-438.92000000000013" y="247.1400000000001" as="targetPoint" />
          </mxGeometry>
        </mxCell>
        <mxCell id="8WFV7_VvVoEUuy8R9E2Z-97" value="" style="endArrow=none;html=1;rounded=0;entryX=1.018;entryY=0.328;entryDx=0;entryDy=0;entryPerimeter=0;" edge="1" parent="1">
          <mxGeometry width="50" height="50" relative="1" as="geometry">
            <mxPoint x="-487.15999999999997" y="70.80000000000007" as="sourcePoint" />
            <mxPoint x="-365.0000000000001" y="70.00000000000011" as="targetPoint" />
          </mxGeometry>
        </mxCell>
        <mxCell id="8WFV7_VvVoEUuy8R9E2Z-98" value="" style="endArrow=none;html=1;rounded=0;entryX=1.018;entryY=0.328;entryDx=0;entryDy=0;entryPerimeter=0;" edge="1" parent="1">
          <mxGeometry width="50" height="50" relative="1" as="geometry">
            <mxPoint x="-227.15999999999997" y="60.800000000000054" as="sourcePoint" />
            <mxPoint x="-105.00000000000011" y="60.0000000000001" as="targetPoint" />
          </mxGeometry>
        </mxCell>
        <mxCell id="8WFV7_VvVoEUuy8R9E2Z-120" style="edgeStyle=orthogonalEdgeStyle;rounded=0;orthogonalLoop=1;jettySize=auto;html=1;" edge="1" parent="1" source="8WFV7_VvVoEUuy8R9E2Z-99" target="8WFV7_VvVoEUuy8R9E2Z-100">
          <mxGeometry relative="1" as="geometry" />
        </mxCell>
        <mxCell id="8WFV7_VvVoEUuy8R9E2Z-99" value="&lt;ul style=&quot;text-align: start; text-wrap: wrap;&quot; class=&quot;ul1&quot;&gt;&lt;ul style=&quot;list-style-type: disc;&quot; class=&quot;ul1&quot;&gt;&lt;li style=&quot;margin: 0px; font-variant-numeric: normal; font-variant-east-asian: normal; font-variant-alternates: normal; font-kerning: auto; font-optical-sizing: auto; font-feature-settings: normal; font-variation-settings: normal; font-variant-position: normal; font-stretch: normal; line-height: normal; font-family: &amp;quot;Helvetica Neue&amp;quot;;&quot; class=&quot;li1&quot;&gt;&lt;font style=&quot;font-size: 14px;&quot;&gt;&lt;span style=&quot;font-variant-numeric: normal; font-variant-east-asian: normal; font-variant-alternates: normal; font-kerning: auto; font-optical-sizing: auto; font-feature-settings: normal; font-variation-settings: normal; font-variant-position: normal; line-height: normal; font-family: Menlo; font-stretch: normal; font-stretch: normal;&quot; class=&quot;s1&quot;&gt;&lt;/span&gt;ID_Vote (PK)&lt;/font&gt;&lt;/li&gt;&lt;li style=&quot;margin: 0px; font-variant-numeric: normal; font-variant-east-asian: normal; font-variant-alternates: normal; font-kerning: auto; font-optical-sizing: auto; font-feature-settings: normal; font-variation-settings: normal; font-variant-position: normal; font-stretch: normal; line-height: normal; font-family: &amp;quot;Helvetica Neue&amp;quot;;&quot; class=&quot;li1&quot;&gt;&lt;font size=&quot;3&quot; style=&quot;&quot;&gt;&lt;span style=&quot;font-variant-numeric: normal; font-variant-east-asian: normal; font-variant-alternates: normal; font-kerning: auto; font-optical-sizing: auto; font-feature-settings: normal; font-variation-settings: normal; font-variant-position: normal; font-stretch: normal; line-height: normal; font-family: Menlo;&quot; class=&quot;s1&quot;&gt;&lt;/span&gt;Titre&lt;/font&gt;&lt;/li&gt;&lt;li style=&quot;margin: 0px; font-variant-numeric: normal; font-variant-east-asian: normal; font-variant-alternates: normal; font-kerning: auto; font-optical-sizing: auto; font-feature-settings: normal; font-variation-settings: normal; font-variant-position: normal; font-stretch: normal; line-height: normal; font-family: &amp;quot;Helvetica Neue&amp;quot;;&quot; class=&quot;li1&quot;&gt;&lt;font size=&quot;3&quot;&gt;&lt;span style=&quot;font-variant-numeric: normal; font-variant-east-asian: normal; font-variant-alternates: normal; font-kerning: auto; font-optical-sizing: auto; font-feature-settings: normal; font-variation-settings: normal; font-variant-position: normal; font-stretch: normal; line-height: normal; font-family: Menlo;&quot; class=&quot;s1&quot;&gt;&lt;/span&gt;Description&lt;/font&gt;&lt;/li&gt;&lt;li style=&quot;margin: 0px; font-variant-numeric: normal; font-variant-east-asian: normal; font-variant-alternates: normal; font-kerning: auto; font-optical-sizing: auto; font-feature-settings: normal; font-variation-settings: normal; font-variant-position: normal; font-stretch: normal; line-height: normal; font-family: &amp;quot;Helvetica Neue&amp;quot;;&quot; class=&quot;li1&quot;&gt;&lt;font size=&quot;3&quot;&gt;&lt;span style=&quot;font-variant-numeric: normal; font-variant-east-asian: normal; font-variant-alternates: normal; font-kerning: auto; font-optical-sizing: auto; font-feature-settings: normal; font-variation-settings: normal; font-variant-position: normal; font-stretch: normal; line-height: normal; font-family: Menlo;&quot; class=&quot;s1&quot;&gt;&lt;/span&gt;Date_Début&lt;/font&gt;&lt;/li&gt;&lt;li style=&quot;margin: 0px; font-variant-numeric: normal; font-variant-east-asian: normal; font-variant-alternates: normal; font-kerning: auto; font-optical-sizing: auto; font-feature-settings: normal; font-variation-settings: normal; font-variant-position: normal; font-stretch: normal; line-height: normal; font-family: &amp;quot;Helvetica Neue&amp;quot;;&quot; class=&quot;li1&quot;&gt;&lt;font size=&quot;3&quot;&gt;&lt;span style=&quot;font-variant-numeric: normal; font-variant-east-asian: normal; font-variant-alternates: normal; font-kerning: auto; font-optical-sizing: auto; font-feature-settings: normal; font-variation-settings: normal; font-variant-position: normal; font-stretch: normal; line-height: normal; font-family: Menlo;&quot; class=&quot;s1&quot;&gt;&lt;/span&gt;Date_Fin&lt;/font&gt;&lt;/li&gt;&lt;li style=&quot;margin: 0px; font-variant-numeric: normal; font-variant-east-asian: normal; font-variant-alternates: normal; font-kerning: auto; font-optical-sizing: auto; font-feature-settings: normal; font-variation-settings: normal; font-variant-position: normal; font-stretch: normal; line-height: normal; font-family: &amp;quot;Helvetica Neue&amp;quot;;&quot; class=&quot;li1&quot;&gt;&lt;font size=&quot;3&quot;&gt;&lt;span style=&quot;font-variant-numeric: normal; font-variant-east-asian: normal; font-variant-alternates: normal; font-kerning: auto; font-optical-sizing: auto; font-feature-settings: normal; font-variation-settings: normal; font-variant-position: normal; line-height: normal; font-family: Menlo; font-stretch: normal;&quot; class=&quot;s1&quot;&gt;&lt;/span&gt;Modalité&lt;/font&gt;&lt;/li&gt;&lt;/ul&gt;&lt;/ul&gt;" style="text;html=1;align=center;verticalAlign=middle;resizable=0;points=[];autosize=1;strokeColor=none;fillColor=none;" vertex="1" parent="1">
          <mxGeometry x="-295" y="50" width="190" height="150" as="geometry" />
        </mxCell>
        <mxCell id="8WFV7_VvVoEUuy8R9E2Z-100" value="&lt;ul style=&quot;font-size: medium; text-align: start; text-wrap: wrap;&quot; class=&quot;ul1&quot;&gt;&lt;ul style=&quot;list-style-type: disc;&quot; class=&quot;ul1&quot;&gt;&lt;li style=&quot;margin: 0px; font-variant-numeric: normal; font-variant-east-asian: normal; font-variant-alternates: normal; font-kerning: auto; font-optical-sizing: auto; font-feature-settings: normal; font-variation-settings: normal; font-variant-position: normal; font-stretch: normal; font-size: 13px; line-height: normal; font-family: &amp;quot;Helvetica Neue&amp;quot;;&quot; class=&quot;li1&quot;&gt;&lt;span style=&quot;font-variant-numeric: normal; font-variant-east-asian: normal; font-variant-alternates: normal; font-kerning: auto; font-optical-sizing: auto; font-feature-settings: normal; font-variation-settings: normal; font-variant-position: normal; font-stretch: normal; font-size: 9px; line-height: normal; font-family: Menlo;&quot; class=&quot;s1&quot;&gt;&lt;/span&gt;ID_Participation (PK)&lt;/li&gt;&lt;li style=&quot;margin: 0px; font-variant-numeric: normal; font-variant-east-asian: normal; font-variant-alternates: normal; font-kerning: auto; font-optical-sizing: auto; font-feature-settings: normal; font-variation-settings: normal; font-variant-position: normal; font-stretch: normal; font-size: 13px; line-height: normal; font-family: &amp;quot;Helvetica Neue&amp;quot;;&quot; class=&quot;li1&quot;&gt;&lt;span style=&quot;font-variant-numeric: normal; font-variant-east-asian: normal; font-variant-alternates: normal; font-kerning: auto; font-optical-sizing: auto; font-feature-settings: normal; font-variation-settings: normal; font-variant-position: normal; font-stretch: normal; font-size: 9px; line-height: normal; font-family: Menlo;&quot; class=&quot;s1&quot;&gt;&lt;/span&gt;ID_Vote (FK)&lt;/li&gt;&lt;li style=&quot;margin: 0px; font-variant-numeric: normal; font-variant-east-asian: normal; font-variant-alternates: normal; font-kerning: auto; font-optical-sizing: auto; font-feature-settings: normal; font-variation-settings: normal; font-variant-position: normal; font-stretch: normal; font-size: 13px; line-height: normal; font-family: &amp;quot;Helvetica Neue&amp;quot;;&quot; class=&quot;li1&quot;&gt;&lt;span style=&quot;font-variant-numeric: normal; font-variant-east-asian: normal; font-variant-alternates: normal; font-kerning: auto; font-optical-sizing: auto; font-feature-settings: normal; font-variation-settings: normal; font-variant-position: normal; font-stretch: normal; font-size: 9px; line-height: normal; font-family: Menlo;&quot; class=&quot;s1&quot;&gt;&lt;/span&gt;ID_Employé (FK)&lt;/li&gt;&lt;li style=&quot;margin: 0px; font-variant-numeric: normal; font-variant-east-asian: normal; font-variant-alternates: normal; font-kerning: auto; font-optical-sizing: auto; font-feature-settings: normal; font-variation-settings: normal; font-variant-position: normal; font-stretch: normal; font-size: 13px; line-height: normal; font-family: &amp;quot;Helvetica Neue&amp;quot;;&quot; class=&quot;li1&quot;&gt;&lt;span style=&quot;font-variant-numeric: normal; font-variant-east-asian: normal; font-variant-alternates: normal; font-kerning: auto; font-optical-sizing: auto; font-feature-settings: normal; font-variation-settings: normal; font-variant-position: normal; font-stretch: normal; font-size: 9px; line-height: normal; font-family: Menlo;&quot; class=&quot;s1&quot;&gt;&lt;/span&gt;Date_Participation&lt;/li&gt;&lt;/ul&gt;&lt;/ul&gt;" style="text;html=1;align=center;verticalAlign=middle;resizable=0;points=[];autosize=1;strokeColor=none;fillColor=none;" vertex="1" parent="1">
          <mxGeometry x="-560" y="70" width="220" height="110" as="geometry" />
        </mxCell>
        <mxCell id="8WFV7_VvVoEUuy8R9E2Z-101" value="&lt;ul style=&quot;font-size: medium; text-align: start; text-wrap: wrap;&quot; class=&quot;ul1&quot;&gt;&lt;ul style=&quot;list-style-type: disc;&quot; class=&quot;ul1&quot;&gt;&lt;li style=&quot;margin: 0px; font-variant-numeric: normal; font-variant-east-asian: normal; font-variant-alternates: normal; font-kerning: auto; font-optical-sizing: auto; font-feature-settings: normal; font-variation-settings: normal; font-variant-position: normal; font-stretch: normal; font-size: 13px; line-height: normal; font-family: &amp;quot;Helvetica Neue&amp;quot;;&quot; class=&quot;li1&quot;&gt;&lt;span style=&quot;font-variant-numeric: normal; font-variant-east-asian: normal; font-variant-alternates: normal; font-kerning: auto; font-optical-sizing: auto; font-feature-settings: normal; font-variation-settings: normal; font-variant-position: normal; font-stretch: normal; font-size: 9px; line-height: normal; font-family: Menlo;&quot; class=&quot;s1&quot;&gt;&lt;/span&gt;ID_Résultat (PK)&lt;/li&gt;&lt;li style=&quot;margin: 0px; font-variant-numeric: normal; font-variant-east-asian: normal; font-variant-alternates: normal; font-kerning: auto; font-optical-sizing: auto; font-feature-settings: normal; font-variation-settings: normal; font-variant-position: normal; font-stretch: normal; font-size: 13px; line-height: normal; font-family: &amp;quot;Helvetica Neue&amp;quot;;&quot; class=&quot;li1&quot;&gt;&lt;span style=&quot;font-variant-numeric: normal; font-variant-east-asian: normal; font-variant-alternates: normal; font-kerning: auto; font-optical-sizing: auto; font-feature-settings: normal; font-variation-settings: normal; font-variant-position: normal; font-stretch: normal; font-size: 9px; line-height: normal; font-family: Menlo;&quot; class=&quot;s1&quot;&gt;&lt;/span&gt;ID_Participation (FK)&lt;/li&gt;&lt;li style=&quot;margin: 0px; font-variant-numeric: normal; font-variant-east-asian: normal; font-variant-alternates: normal; font-kerning: auto; font-optical-sizing: auto; font-feature-settings: normal; font-variation-settings: normal; font-variant-position: normal; font-stretch: normal; font-size: 13px; line-height: normal; font-family: &amp;quot;Helvetica Neue&amp;quot;;&quot; class=&quot;li1&quot;&gt;&lt;span style=&quot;font-variant-numeric: normal; font-variant-east-asian: normal; font-variant-alternates: normal; font-kerning: auto; font-optical-sizing: auto; font-feature-settings: normal; font-variation-settings: normal; font-variant-position: normal; font-stretch: normal; font-size: 9px; line-height: normal; font-family: Menlo;&quot; class=&quot;s1&quot;&gt;&lt;/span&gt;ID_Option (FK)&lt;/li&gt;&lt;/ul&gt;&lt;/ul&gt;" style="text;html=1;align=center;verticalAlign=middle;resizable=0;points=[];autosize=1;strokeColor=none;fillColor=none;" vertex="1" parent="1">
          <mxGeometry x="-645" y="260" width="220" height="90" as="geometry" />
        </mxCell>
        <mxCell id="8WFV7_VvVoEUuy8R9E2Z-134" style="edgeStyle=orthogonalEdgeStyle;rounded=0;orthogonalLoop=1;jettySize=auto;html=1;" edge="1" parent="1" source="8WFV7_VvVoEUuy8R9E2Z-102" target="8WFV7_VvVoEUuy8R9E2Z-104">
          <mxGeometry relative="1" as="geometry">
            <Array as="points">
              <mxPoint x="800" y="715" />
              <mxPoint x="800" y="345" />
            </Array>
          </mxGeometry>
        </mxCell>
        <mxCell id="8WFV7_VvVoEUuy8R9E2Z-102" value="&lt;ul style=&quot;font-size: medium; text-align: start; text-wrap: wrap;&quot; class=&quot;ul1&quot;&gt;&lt;ul style=&quot;list-style-type: disc;&quot; class=&quot;ul1&quot;&gt;&lt;li style=&quot;margin: 0px; font-variant-numeric: normal; font-variant-east-asian: normal; font-variant-alternates: normal; font-kerning: auto; font-optical-sizing: auto; font-feature-settings: normal; font-variation-settings: normal; font-variant-position: normal; font-stretch: normal; font-size: 13px; line-height: normal; font-family: &amp;quot;Helvetica Neue&amp;quot;;&quot; class=&quot;li1&quot;&gt;&lt;span style=&quot;font-variant-numeric: normal; font-variant-east-asian: normal; font-variant-alternates: normal; font-kerning: auto; font-optical-sizing: auto; font-feature-settings: normal; font-variation-settings: normal; font-variant-position: normal; font-stretch: normal; font-size: 9px; line-height: normal; font-family: Menlo;&quot; class=&quot;s1&quot;&gt;&lt;/span&gt;ID_Document (PK)&lt;/li&gt;&lt;li style=&quot;margin: 0px; font-variant-numeric: normal; font-variant-east-asian: normal; font-variant-alternates: normal; font-kerning: auto; font-optical-sizing: auto; font-feature-settings: normal; font-variation-settings: normal; font-variant-position: normal; font-stretch: normal; font-size: 13px; line-height: normal; font-family: &amp;quot;Helvetica Neue&amp;quot;;&quot; class=&quot;li1&quot;&gt;&lt;span style=&quot;font-variant-numeric: normal; font-variant-east-asian: normal; font-variant-alternates: normal; font-kerning: auto; font-optical-sizing: auto; font-feature-settings: normal; font-variation-settings: normal; font-variant-position: normal; font-stretch: normal; font-size: 9px; line-height: normal; font-family: Menlo;&quot; class=&quot;s1&quot;&gt;&lt;/span&gt;Titre&lt;/li&gt;&lt;li style=&quot;margin: 0px; font-variant-numeric: normal; font-variant-east-asian: normal; font-variant-alternates: normal; font-kerning: auto; font-optical-sizing: auto; font-feature-settings: normal; font-variation-settings: normal; font-variant-position: normal; font-stretch: normal; font-size: 13px; line-height: normal; font-family: &amp;quot;Helvetica Neue&amp;quot;;&quot; class=&quot;li1&quot;&gt;&lt;span style=&quot;font-variant-numeric: normal; font-variant-east-asian: normal; font-variant-alternates: normal; font-kerning: auto; font-optical-sizing: auto; font-feature-settings: normal; font-variation-settings: normal; font-variant-position: normal; font-stretch: normal; font-size: 9px; line-height: normal; font-family: Menlo;&quot; class=&quot;s1&quot;&gt;&lt;/span&gt;Description&lt;/li&gt;&lt;li style=&quot;margin: 0px; font-variant-numeric: normal; font-variant-east-asian: normal; font-variant-alternates: normal; font-kerning: auto; font-optical-sizing: auto; font-feature-settings: normal; font-variation-settings: normal; font-variant-position: normal; font-stretch: normal; font-size: 13px; line-height: normal; font-family: &amp;quot;Helvetica Neue&amp;quot;;&quot; class=&quot;li1&quot;&gt;&lt;span style=&quot;font-variant-numeric: normal; font-variant-east-asian: normal; font-variant-alternates: normal; font-kerning: auto; font-optical-sizing: auto; font-feature-settings: normal; font-variation-settings: normal; font-variant-position: normal; font-stretch: normal; font-size: 9px; line-height: normal; font-family: Menlo;&quot; class=&quot;s1&quot;&gt;&lt;/span&gt;Type_Document&lt;/li&gt;&lt;li style=&quot;margin: 0px; font-variant-numeric: normal; font-variant-east-asian: normal; font-variant-alternates: normal; font-kerning: auto; font-optical-sizing: auto; font-feature-settings: normal; font-variation-settings: normal; font-variant-position: normal; font-stretch: normal; font-size: 13px; line-height: normal; font-family: &amp;quot;Helvetica Neue&amp;quot;;&quot; class=&quot;li1&quot;&gt;&lt;span style=&quot;font-variant-numeric: normal; font-variant-east-asian: normal; font-variant-alternates: normal; font-kerning: auto; font-optical-sizing: auto; font-feature-settings: normal; font-variation-settings: normal; font-variant-position: normal; font-stretch: normal; font-size: 9px; line-height: normal; font-family: Menlo;&quot; class=&quot;s1&quot;&gt;&lt;/span&gt;Date_Création&lt;/li&gt;&lt;li style=&quot;margin: 0px; font-variant-numeric: normal; font-variant-east-asian: normal; font-variant-alternates: normal; font-kerning: auto; font-optical-sizing: auto; font-feature-settings: normal; font-variation-settings: normal; font-variant-position: normal; font-stretch: normal; font-size: 13px; line-height: normal; font-family: &amp;quot;Helvetica Neue&amp;quot;;&quot; class=&quot;li1&quot;&gt;&lt;span style=&quot;font-variant-numeric: normal; font-variant-east-asian: normal; font-variant-alternates: normal; font-kerning: auto; font-optical-sizing: auto; font-feature-settings: normal; font-variation-settings: normal; font-variant-position: normal; font-stretch: normal; font-size: 9px; line-height: normal; font-family: Menlo;&quot; class=&quot;s1&quot;&gt;&lt;/span&gt;Chemin_Accès&lt;/li&gt;&lt;/ul&gt;&lt;/ul&gt;" style="text;html=1;align=center;verticalAlign=middle;resizable=0;points=[];autosize=1;strokeColor=none;fillColor=none;" vertex="1" parent="1">
          <mxGeometry x="450" y="645" width="210" height="140" as="geometry" />
        </mxCell>
        <mxCell id="8WFV7_VvVoEUuy8R9E2Z-137" style="edgeStyle=orthogonalEdgeStyle;rounded=0;orthogonalLoop=1;jettySize=auto;html=1;" edge="1" parent="1" source="8WFV7_VvVoEUuy8R9E2Z-103" target="8WFV7_VvVoEUuy8R9E2Z-104">
          <mxGeometry relative="1" as="geometry">
            <Array as="points">
              <mxPoint x="460" y="400" />
              <mxPoint x="460" y="400" />
            </Array>
          </mxGeometry>
        </mxCell>
        <mxCell id="8WFV7_VvVoEUuy8R9E2Z-103" value="&lt;ul style=&quot;font-size: medium; text-align: start; text-wrap: wrap;&quot; class=&quot;ul1&quot;&gt;&lt;ul style=&quot;list-style-type: disc;&quot; class=&quot;ul1&quot;&gt;&lt;li style=&quot;margin: 0px; font-variant-numeric: normal; font-variant-east-asian: normal; font-variant-alternates: normal; font-kerning: auto; font-optical-sizing: auto; font-feature-settings: normal; font-variation-settings: normal; font-variant-position: normal; font-stretch: normal; font-size: 13px; line-height: normal; font-family: &amp;quot;Helvetica Neue&amp;quot;;&quot; class=&quot;li1&quot;&gt;&lt;span style=&quot;font-variant-numeric: normal; font-variant-east-asian: normal; font-variant-alternates: normal; font-kerning: auto; font-optical-sizing: auto; font-feature-settings: normal; font-variation-settings: normal; font-variant-position: normal; font-stretch: normal; font-size: 9px; line-height: normal; font-family: Menlo;&quot; class=&quot;s1&quot;&gt;&lt;/span&gt;ID_Coffre (PK)&lt;/li&gt;&lt;li style=&quot;margin: 0px; font-variant-numeric: normal; font-variant-east-asian: normal; font-variant-alternates: normal; font-kerning: auto; font-optical-sizing: auto; font-feature-settings: normal; font-variation-settings: normal; font-variant-position: normal; font-stretch: normal; font-size: 13px; line-height: normal; font-family: &amp;quot;Helvetica Neue&amp;quot;;&quot; class=&quot;li1&quot;&gt;&lt;span style=&quot;font-variant-numeric: normal; font-variant-east-asian: normal; font-variant-alternates: normal; font-kerning: auto; font-optical-sizing: auto; font-feature-settings: normal; font-variation-settings: normal; font-variant-position: normal; font-stretch: normal; font-size: 9px; line-height: normal; font-family: Menlo;&quot; class=&quot;s1&quot;&gt;&lt;/span&gt;Nom_Coffre&lt;/li&gt;&lt;li style=&quot;margin: 0px; font-variant-numeric: normal; font-variant-east-asian: normal; font-variant-alternates: normal; font-kerning: auto; font-optical-sizing: auto; font-feature-settings: normal; font-variation-settings: normal; font-variant-position: normal; font-stretch: normal; font-size: 13px; line-height: normal; font-family: &amp;quot;Helvetica Neue&amp;quot;;&quot; class=&quot;li1&quot;&gt;&lt;span style=&quot;font-variant-numeric: normal; font-variant-east-asian: normal; font-variant-alternates: normal; font-kerning: auto; font-optical-sizing: auto; font-feature-settings: normal; font-variation-settings: normal; font-variant-position: normal; font-stretch: normal; font-size: 9px; line-height: normal; font-family: Menlo;&quot; class=&quot;s1&quot;&gt;&lt;/span&gt;Description&lt;/li&gt;&lt;/ul&gt;&lt;/ul&gt;" style="text;html=1;align=center;verticalAlign=middle;resizable=0;points=[];autosize=1;strokeColor=none;fillColor=none;" vertex="1" parent="1">
          <mxGeometry x="460" y="470" width="190" height="90" as="geometry" />
        </mxCell>
        <mxCell id="8WFV7_VvVoEUuy8R9E2Z-104" value="&lt;ul style=&quot;font-size: medium; text-align: start; text-wrap: wrap;&quot; class=&quot;ul1&quot;&gt;&lt;ul style=&quot;list-style-type: disc;&quot; class=&quot;ul1&quot;&gt;&lt;li style=&quot;margin: 0px; font-variant-numeric: normal; font-variant-east-asian: normal; font-variant-alternates: normal; font-kerning: auto; font-optical-sizing: auto; font-feature-settings: normal; font-variation-settings: normal; font-variant-position: normal; font-stretch: normal; font-size: 13px; line-height: normal; font-family: &amp;quot;Helvetica Neue&amp;quot;;&quot; class=&quot;li1&quot;&gt;&lt;span style=&quot;font-variant-numeric: normal; font-variant-east-asian: normal; font-variant-alternates: normal; font-kerning: auto; font-optical-sizing: auto; font-feature-settings: normal; font-variation-settings: normal; font-variant-position: normal; font-stretch: normal; font-size: 9px; line-height: normal; font-family: Menlo;&quot; class=&quot;s1&quot;&gt;&lt;/span&gt;ID_Document_Coffre (PK)&lt;/li&gt;&lt;li style=&quot;margin: 0px; font-variant-numeric: normal; font-variant-east-asian: normal; font-variant-alternates: normal; font-kerning: auto; font-optical-sizing: auto; font-feature-settings: normal; font-variation-settings: normal; font-variant-position: normal; font-stretch: normal; font-size: 13px; line-height: normal; font-family: &amp;quot;Helvetica Neue&amp;quot;;&quot; class=&quot;li1&quot;&gt;&lt;span style=&quot;font-variant-numeric: normal; font-variant-east-asian: normal; font-variant-alternates: normal; font-kerning: auto; font-optical-sizing: auto; font-feature-settings: normal; font-variation-settings: normal; font-variant-position: normal; font-stretch: normal; font-size: 9px; line-height: normal; font-family: Menlo;&quot; class=&quot;s1&quot;&gt;&lt;/span&gt;ID_Document (FK)&lt;/li&gt;&lt;li style=&quot;margin: 0px; font-variant-numeric: normal; font-variant-east-asian: normal; font-variant-alternates: normal; font-kerning: auto; font-optical-sizing: auto; font-feature-settings: normal; font-variation-settings: normal; font-variant-position: normal; font-stretch: normal; font-size: 13px; line-height: normal; font-family: &amp;quot;Helvetica Neue&amp;quot;;&quot; class=&quot;li1&quot;&gt;&lt;span style=&quot;font-variant-numeric: normal; font-variant-east-asian: normal; font-variant-alternates: normal; font-kerning: auto; font-optical-sizing: auto; font-feature-settings: normal; font-variation-settings: normal; font-variant-position: normal; font-stretch: normal; font-size: 9px; line-height: normal; font-family: Menlo;&quot; class=&quot;s1&quot;&gt;&lt;/span&gt;ID_Coffre (FK)&lt;/li&gt;&lt;li style=&quot;margin: 0px; font-variant-numeric: normal; font-variant-east-asian: normal; font-variant-alternates: normal; font-kerning: auto; font-optical-sizing: auto; font-feature-settings: normal; font-variation-settings: normal; font-variant-position: normal; font-stretch: normal; font-size: 13px; line-height: normal; font-family: &amp;quot;Helvetica Neue&amp;quot;;&quot; class=&quot;li1&quot;&gt;&lt;span style=&quot;font-variant-numeric: normal; font-variant-east-asian: normal; font-variant-alternates: normal; font-kerning: auto; font-optical-sizing: auto; font-feature-settings: normal; font-variation-settings: normal; font-variant-position: normal; font-stretch: normal; font-size: 9px; line-height: normal; font-family: Menlo;&quot; class=&quot;s1&quot;&gt;&lt;/span&gt;Date_Stockage&lt;/li&gt;&lt;/ul&gt;&lt;/ul&gt;" style="text;html=1;align=center;verticalAlign=middle;resizable=0;points=[];autosize=1;strokeColor=none;fillColor=none;" vertex="1" parent="1">
          <mxGeometry x="440" y="290" width="250" height="110" as="geometry" />
        </mxCell>
        <mxCell id="8WFV7_VvVoEUuy8R9E2Z-105" value="&lt;ul style=&quot;font-size: medium; text-align: start; text-wrap: wrap;&quot; class=&quot;ul1&quot;&gt;&lt;ul style=&quot;list-style-type: disc;&quot; class=&quot;ul1&quot;&gt;&lt;li style=&quot;margin: 0px; font-variant-numeric: normal; font-variant-east-asian: normal; font-variant-alternates: normal; font-kerning: auto; font-optical-sizing: auto; font-feature-settings: normal; font-variation-settings: normal; font-variant-position: normal; font-stretch: normal; font-size: 13px; line-height: normal; font-family: &amp;quot;Helvetica Neue&amp;quot;;&quot; class=&quot;li1&quot;&gt;&lt;span style=&quot;font-variant-numeric: normal; font-variant-east-asian: normal; font-variant-alternates: normal; font-kerning: auto; font-optical-sizing: auto; font-feature-settings: normal; font-variation-settings: normal; font-variant-position: normal; font-stretch: normal; font-size: 9px; line-height: normal; font-family: Menlo;&quot; class=&quot;s1&quot;&gt;&lt;/span&gt;ID_Accès (PK)&lt;/li&gt;&lt;li style=&quot;margin: 0px; font-variant-numeric: normal; font-variant-east-asian: normal; font-variant-alternates: normal; font-kerning: auto; font-optical-sizing: auto; font-feature-settings: normal; font-variation-settings: normal; font-variant-position: normal; font-stretch: normal; font-size: 13px; line-height: normal; font-family: &amp;quot;Helvetica Neue&amp;quot;;&quot; class=&quot;li1&quot;&gt;&lt;span style=&quot;font-variant-numeric: normal; font-variant-east-asian: normal; font-variant-alternates: normal; font-kerning: auto; font-optical-sizing: auto; font-feature-settings: normal; font-variation-settings: normal; font-variant-position: normal; font-stretch: normal; font-size: 9px; line-height: normal; font-family: Menlo;&quot; class=&quot;s1&quot;&gt;&lt;/span&gt;ID_Employé (FK)&lt;/li&gt;&lt;li style=&quot;margin: 0px; font-variant-numeric: normal; font-variant-east-asian: normal; font-variant-alternates: normal; font-kerning: auto; font-optical-sizing: auto; font-feature-settings: normal; font-variation-settings: normal; font-variant-position: normal; font-stretch: normal; font-size: 13px; line-height: normal; font-family: &amp;quot;Helvetica Neue&amp;quot;;&quot; class=&quot;li1&quot;&gt;&lt;span style=&quot;font-variant-numeric: normal; font-variant-east-asian: normal; font-variant-alternates: normal; font-kerning: auto; font-optical-sizing: auto; font-feature-settings: normal; font-variation-settings: normal; font-variant-position: normal; font-stretch: normal; font-size: 9px; line-height: normal; font-family: Menlo;&quot; class=&quot;s1&quot;&gt;&lt;/span&gt;Date_Début&lt;/li&gt;&lt;li style=&quot;margin: 0px; font-variant-numeric: normal; font-variant-east-asian: normal; font-variant-alternates: normal; font-kerning: auto; font-optical-sizing: auto; font-feature-settings: normal; font-variation-settings: normal; font-variant-position: normal; font-stretch: normal; font-size: 13px; line-height: normal; font-family: &amp;quot;Helvetica Neue&amp;quot;;&quot; class=&quot;li1&quot;&gt;&lt;span style=&quot;font-variant-numeric: normal; font-variant-east-asian: normal; font-variant-alternates: normal; font-kerning: auto; font-optical-sizing: auto; font-feature-settings: normal; font-variation-settings: normal; font-variant-position: normal; font-stretch: normal; font-size: 9px; line-height: normal; font-family: Menlo;&quot; class=&quot;s1&quot;&gt;&lt;/span&gt;Date_Fin&lt;/li&gt;&lt;/ul&gt;&lt;/ul&gt;" style="text;html=1;align=center;verticalAlign=middle;resizable=0;points=[];autosize=1;strokeColor=none;fillColor=none;" vertex="1" parent="1">
          <mxGeometry x="285" y="890" width="200" height="110" as="geometry" />
        </mxCell>
        <mxCell id="8WFV7_VvVoEUuy8R9E2Z-143" style="edgeStyle=orthogonalEdgeStyle;rounded=0;orthogonalLoop=1;jettySize=auto;html=1;" edge="1" parent="1" source="8WFV7_VvVoEUuy8R9E2Z-106">
          <mxGeometry relative="1" as="geometry">
            <mxPoint x="60.00000000000023" y="1010" as="targetPoint" />
            <Array as="points">
              <mxPoint x="170" y="1010" />
            </Array>
          </mxGeometry>
        </mxCell>
        <mxCell id="8WFV7_VvVoEUuy8R9E2Z-106" value="&lt;ul style=&quot;font-size: medium; text-align: start; text-wrap: wrap;&quot; class=&quot;ul1&quot;&gt;&lt;ul style=&quot;list-style-type: disc;&quot; class=&quot;ul1&quot;&gt;&lt;li style=&quot;margin: 0px; font-variant-numeric: normal; font-variant-east-asian: normal; font-variant-alternates: normal; font-kerning: auto; font-optical-sizing: auto; font-feature-settings: normal; font-variation-settings: normal; font-variant-position: normal; font-stretch: normal; font-size: 13px; line-height: normal; font-family: &amp;quot;Helvetica Neue&amp;quot;;&quot; class=&quot;li1&quot;&gt;&lt;span style=&quot;font-variant-numeric: normal; font-variant-east-asian: normal; font-variant-alternates: normal; font-kerning: auto; font-optical-sizing: auto; font-feature-settings: normal; font-variation-settings: normal; font-variant-position: normal; font-stretch: normal; font-size: 9px; line-height: normal; font-family: Menlo;&quot; class=&quot;s1&quot;&gt;&lt;/span&gt;ID_Rôle (PK)&lt;/li&gt;&lt;li style=&quot;margin: 0px; font-variant-numeric: normal; font-variant-east-asian: normal; font-variant-alternates: normal; font-kerning: auto; font-optical-sizing: auto; font-feature-settings: normal; font-variation-settings: normal; font-variant-position: normal; font-stretch: normal; font-size: 13px; line-height: normal; font-family: &amp;quot;Helvetica Neue&amp;quot;;&quot; class=&quot;li1&quot;&gt;&lt;span style=&quot;font-variant-numeric: normal; font-variant-east-asian: normal; font-variant-alternates: normal; font-kerning: auto; font-optical-sizing: auto; font-feature-settings: normal; font-variation-settings: normal; font-variant-position: normal; font-stretch: normal; font-size: 9px; line-height: normal; font-family: Menlo;&quot; class=&quot;s1&quot;&gt;&lt;/span&gt;Nom_Rôle&lt;/li&gt;&lt;li style=&quot;margin: 0px; font-variant-numeric: normal; font-variant-east-asian: normal; font-variant-alternates: normal; font-kerning: auto; font-optical-sizing: auto; font-feature-settings: normal; font-variation-settings: normal; font-variant-position: normal; font-stretch: normal; font-size: 13px; line-height: normal; font-family: &amp;quot;Helvetica Neue&amp;quot;;&quot; class=&quot;li1&quot;&gt;&lt;span style=&quot;font-variant-numeric: normal; font-variant-east-asian: normal; font-variant-alternates: normal; font-kerning: auto; font-optical-sizing: auto; font-feature-settings: normal; font-variation-settings: normal; font-variant-position: normal; font-stretch: normal; font-size: 9px; line-height: normal; font-family: Menlo;&quot; class=&quot;s1&quot;&gt;&lt;/span&gt;Description&lt;/li&gt;&lt;/ul&gt;&lt;/ul&gt;" style="text;html=1;align=center;verticalAlign=middle;resizable=0;points=[];autosize=1;strokeColor=none;fillColor=none;" vertex="1" parent="1">
          <mxGeometry x="120" y="900" width="180" height="90" as="geometry" />
        </mxCell>
        <mxCell id="8WFV7_VvVoEUuy8R9E2Z-107" value="&lt;ul style=&quot;font-size: medium; text-align: start; text-wrap: wrap;&quot; class=&quot;ul1&quot;&gt;&lt;ul style=&quot;list-style-type: disc;&quot; class=&quot;ul1&quot;&gt;&lt;li style=&quot;margin: 0px; font-variant-numeric: normal; font-variant-east-asian: normal; font-variant-alternates: normal; font-kerning: auto; font-optical-sizing: auto; font-feature-settings: normal; font-variation-settings: normal; font-variant-position: normal; font-stretch: normal; font-size: 13px; line-height: normal; font-family: &amp;quot;Helvetica Neue&amp;quot;;&quot; class=&quot;li1&quot;&gt;&lt;span style=&quot;font-variant-numeric: normal; font-variant-east-asian: normal; font-variant-alternates: normal; font-kerning: auto; font-optical-sizing: auto; font-feature-settings: normal; font-variation-settings: normal; font-variant-position: normal; font-stretch: normal; font-size: 9px; line-height: normal; font-family: Menlo;&quot; class=&quot;s1&quot;&gt;&lt;/span&gt;ID_Employé (FK)&lt;/li&gt;&lt;li style=&quot;margin: 0px; font-variant-numeric: normal; font-variant-east-asian: normal; font-variant-alternates: normal; font-kerning: auto; font-optical-sizing: auto; font-feature-settings: normal; font-variation-settings: normal; font-variant-position: normal; font-stretch: normal; font-size: 13px; line-height: normal; font-family: &amp;quot;Helvetica Neue&amp;quot;;&quot; class=&quot;li1&quot;&gt;&lt;span style=&quot;font-variant-numeric: normal; font-variant-east-asian: normal; font-variant-alternates: normal; font-kerning: auto; font-optical-sizing: auto; font-feature-settings: normal; font-variation-settings: normal; font-variant-position: normal; font-stretch: normal; font-size: 9px; line-height: normal; font-family: Menlo;&quot; class=&quot;s1&quot;&gt;&lt;/span&gt;ID_Rôle (FK)&lt;/li&gt;&lt;/ul&gt;&lt;/ul&gt;" style="text;html=1;align=center;verticalAlign=middle;resizable=0;points=[];autosize=1;strokeColor=none;fillColor=none;" vertex="1" parent="1">
          <mxGeometry x="-85" y="890" width="200" height="80" as="geometry" />
        </mxCell>
        <mxCell id="8WFV7_VvVoEUuy8R9E2Z-145" style="edgeStyle=orthogonalEdgeStyle;rounded=0;orthogonalLoop=1;jettySize=auto;html=1;" edge="1" parent="1" source="8WFV7_VvVoEUuy8R9E2Z-108" target="8WFV7_VvVoEUuy8R9E2Z-109">
          <mxGeometry relative="1" as="geometry">
            <Array as="points">
              <mxPoint x="-145" y="1020" />
              <mxPoint x="-350" y="1020" />
            </Array>
          </mxGeometry>
        </mxCell>
        <mxCell id="8WFV7_VvVoEUuy8R9E2Z-108" value="&lt;ul style=&quot;font-size: medium; text-align: start; text-wrap: wrap;&quot; class=&quot;ul1&quot;&gt;&lt;ul style=&quot;list-style-type: disc;&quot; class=&quot;ul1&quot;&gt;&lt;li style=&quot;margin: 0px; font-variant-numeric: normal; font-variant-east-asian: normal; font-variant-alternates: normal; font-kerning: auto; font-optical-sizing: auto; font-feature-settings: normal; font-variation-settings: normal; font-variant-position: normal; font-stretch: normal; font-size: 13px; line-height: normal; font-family: &amp;quot;Helvetica Neue&amp;quot;;&quot; class=&quot;li1&quot;&gt;&lt;span style=&quot;font-variant-numeric: normal; font-variant-east-asian: normal; font-variant-alternates: normal; font-kerning: auto; font-optical-sizing: auto; font-feature-settings: normal; font-variation-settings: normal; font-variant-position: normal; font-stretch: normal; font-size: 9px; line-height: normal; font-family: Menlo;&quot; class=&quot;s1&quot;&gt;&lt;/span&gt;ID_Externe (PK)&lt;/li&gt;&lt;li style=&quot;margin: 0px; font-variant-numeric: normal; font-variant-east-asian: normal; font-variant-alternates: normal; font-kerning: auto; font-optical-sizing: auto; font-feature-settings: normal; font-variation-settings: normal; font-variant-position: normal; font-stretch: normal; font-size: 13px; line-height: normal; font-family: &amp;quot;Helvetica Neue&amp;quot;;&quot; class=&quot;li1&quot;&gt;&lt;span style=&quot;font-variant-numeric: normal; font-variant-east-asian: normal; font-variant-alternates: normal; font-kerning: auto; font-optical-sizing: auto; font-feature-settings: normal; font-variation-settings: normal; font-variant-position: normal; font-stretch: normal; font-size: 9px; line-height: normal; font-family: Menlo;&quot; class=&quot;s1&quot;&gt;&lt;/span&gt;Nom&lt;/li&gt;&lt;li style=&quot;margin: 0px; font-variant-numeric: normal; font-variant-east-asian: normal; font-variant-alternates: normal; font-kerning: auto; font-optical-sizing: auto; font-feature-settings: normal; font-variation-settings: normal; font-variant-position: normal; font-stretch: normal; font-size: 13px; line-height: normal; font-family: &amp;quot;Helvetica Neue&amp;quot;;&quot; class=&quot;li1&quot;&gt;&lt;span style=&quot;font-variant-numeric: normal; font-variant-east-asian: normal; font-variant-alternates: normal; font-kerning: auto; font-optical-sizing: auto; font-feature-settings: normal; font-variation-settings: normal; font-variant-position: normal; font-stretch: normal; font-size: 9px; line-height: normal; font-family: Menlo;&quot; class=&quot;s1&quot;&gt;&lt;/span&gt;Prénom&lt;/li&gt;&lt;li style=&quot;margin: 0px; font-variant-numeric: normal; font-variant-east-asian: normal; font-variant-alternates: normal; font-kerning: auto; font-optical-sizing: auto; font-feature-settings: normal; font-variation-settings: normal; font-variant-position: normal; font-stretch: normal; font-size: 13px; line-height: normal; font-family: &amp;quot;Helvetica Neue&amp;quot;;&quot; class=&quot;li1&quot;&gt;&lt;span style=&quot;font-variant-numeric: normal; font-variant-east-asian: normal; font-variant-alternates: normal; font-kerning: auto; font-optical-sizing: auto; font-feature-settings: normal; font-variation-settings: normal; font-variant-position: normal; font-stretch: normal; font-size: 9px; line-height: normal; font-family: Menlo;&quot; class=&quot;s1&quot;&gt;&lt;/span&gt;Email&lt;/li&gt;&lt;li style=&quot;margin: 0px; font-variant-numeric: normal; font-variant-east-asian: normal; font-variant-alternates: normal; font-kerning: auto; font-optical-sizing: auto; font-feature-settings: normal; font-variation-settings: normal; font-variant-position: normal; font-stretch: normal; font-size: 13px; line-height: normal; font-family: &amp;quot;Helvetica Neue&amp;quot;;&quot; class=&quot;li1&quot;&gt;&lt;span style=&quot;font-variant-numeric: normal; font-variant-east-asian: normal; font-variant-alternates: normal; font-kerning: auto; font-optical-sizing: auto; font-feature-settings: normal; font-variation-settings: normal; font-variant-position: normal; font-stretch: normal; font-size: 9px; line-height: normal; font-family: Menlo;&quot; class=&quot;s1&quot;&gt;&lt;/span&gt;Organisation&lt;/li&gt;&lt;/ul&gt;&lt;/ul&gt;" style="text;html=1;align=center;verticalAlign=middle;resizable=0;points=[];autosize=1;strokeColor=none;fillColor=none;" vertex="1" parent="1">
          <mxGeometry x="-240" y="880" width="190" height="130" as="geometry" />
        </mxCell>
        <mxCell id="8WFV7_VvVoEUuy8R9E2Z-147" style="edgeStyle=orthogonalEdgeStyle;rounded=0;orthogonalLoop=1;jettySize=auto;html=1;" edge="1" parent="1" source="8WFV7_VvVoEUuy8R9E2Z-109" target="8WFV7_VvVoEUuy8R9E2Z-105">
          <mxGeometry relative="1" as="geometry">
            <Array as="points">
              <mxPoint x="-350" y="1110" />
              <mxPoint x="385" y="1110" />
            </Array>
          </mxGeometry>
        </mxCell>
        <mxCell id="8WFV7_VvVoEUuy8R9E2Z-109" value="&lt;ul style=&quot;font-size: medium; text-align: start; text-wrap: wrap;&quot; class=&quot;ul1&quot;&gt;&lt;ul style=&quot;list-style-type: disc;&quot; class=&quot;ul1&quot;&gt;&lt;li style=&quot;margin: 0px; font-variant-numeric: normal; font-variant-east-asian: normal; font-variant-alternates: normal; font-kerning: auto; font-optical-sizing: auto; font-feature-settings: normal; font-variation-settings: normal; font-variant-position: normal; font-stretch: normal; font-size: 13px; line-height: normal; font-family: &amp;quot;Helvetica Neue&amp;quot;;&quot; class=&quot;li1&quot;&gt;&lt;span style=&quot;font-variant-numeric: normal; font-variant-east-asian: normal; font-variant-alternates: normal; font-kerning: auto; font-optical-sizing: auto; font-feature-settings: normal; font-variation-settings: normal; font-variant-position: normal; font-stretch: normal; font-size: 9px; line-height: normal; font-family: Menlo;&quot; class=&quot;s1&quot;&gt;&lt;/span&gt;ID_Accès_Temp (PK)&lt;/li&gt;&lt;li style=&quot;margin: 0px; font-variant-numeric: normal; font-variant-east-asian: normal; font-variant-alternates: normal; font-kerning: auto; font-optical-sizing: auto; font-feature-settings: normal; font-variation-settings: normal; font-variant-position: normal; font-stretch: normal; font-size: 13px; line-height: normal; font-family: &amp;quot;Helvetica Neue&amp;quot;;&quot; class=&quot;li1&quot;&gt;&lt;span style=&quot;font-variant-numeric: normal; font-variant-east-asian: normal; font-variant-alternates: normal; font-kerning: auto; font-optical-sizing: auto; font-feature-settings: normal; font-variation-settings: normal; font-variant-position: normal; font-stretch: normal; font-size: 9px; line-height: normal; font-family: Menlo;&quot; class=&quot;s1&quot;&gt;&lt;/span&gt;ID_Externe (FK)&lt;/li&gt;&lt;li style=&quot;margin: 0px; font-variant-numeric: normal; font-variant-east-asian: normal; font-variant-alternates: normal; font-kerning: auto; font-optical-sizing: auto; font-feature-settings: normal; font-variation-settings: normal; font-variant-position: normal; font-stretch: normal; font-size: 13px; line-height: normal; font-family: &amp;quot;Helvetica Neue&amp;quot;;&quot; class=&quot;li1&quot;&gt;&lt;span style=&quot;font-variant-numeric: normal; font-variant-east-asian: normal; font-variant-alternates: normal; font-kerning: auto; font-optical-sizing: auto; font-feature-settings: normal; font-variation-settings: normal; font-variant-position: normal; font-stretch: normal; font-size: 9px; line-height: normal; font-family: Menlo;&quot; class=&quot;s1&quot;&gt;&lt;/span&gt;ID_Accès (FK)&lt;/li&gt;&lt;li style=&quot;margin: 0px; font-variant-numeric: normal; font-variant-east-asian: normal; font-variant-alternates: normal; font-kerning: auto; font-optical-sizing: auto; font-feature-settings: normal; font-variation-settings: normal; font-variant-position: normal; font-stretch: normal; font-size: 13px; line-height: normal; font-family: &amp;quot;Helvetica Neue&amp;quot;;&quot; class=&quot;li1&quot;&gt;&lt;span style=&quot;font-variant-numeric: normal; font-variant-east-asian: normal; font-variant-alternates: normal; font-kerning: auto; font-optical-sizing: auto; font-feature-settings: normal; font-variation-settings: normal; font-variant-position: normal; font-stretch: normal; font-size: 9px; line-height: normal; font-family: Menlo;&quot; class=&quot;s1&quot;&gt;&lt;/span&gt;Date_Attribution&lt;/li&gt;&lt;li style=&quot;margin: 0px; font-variant-numeric: normal; font-variant-east-asian: normal; font-variant-alternates: normal; font-kerning: auto; font-optical-sizing: auto; font-feature-settings: normal; font-variation-settings: normal; font-variant-position: normal; font-stretch: normal; font-size: 13px; line-height: normal; font-family: &amp;quot;Helvetica Neue&amp;quot;;&quot; class=&quot;li1&quot;&gt;&lt;span style=&quot;font-variant-numeric: normal; font-variant-east-asian: normal; font-variant-alternates: normal; font-kerning: auto; font-optical-sizing: auto; font-feature-settings: normal; font-variation-settings: normal; font-variant-position: normal; font-stretch: normal; font-size: 9px; line-height: normal; font-family: Menlo;&quot; class=&quot;s1&quot;&gt;&lt;/span&gt;Date_Expiration&lt;/li&gt;&lt;/ul&gt;&lt;/ul&gt;" style="text;html=1;align=center;verticalAlign=middle;resizable=0;points=[];autosize=1;strokeColor=none;fillColor=none;" vertex="1" parent="1">
          <mxGeometry x="-460" y="870" width="220" height="130" as="geometry" />
        </mxCell>
        <mxCell id="8WFV7_VvVoEUuy8R9E2Z-110" value="&lt;ul style=&quot;font-size: medium; text-align: start; text-wrap: wrap;&quot; class=&quot;ul1&quot;&gt;&lt;ul style=&quot;list-style-type: disc;&quot; class=&quot;ul1&quot;&gt;&lt;li style=&quot;margin: 0px; font-variant-numeric: normal; font-variant-east-asian: normal; font-variant-alternates: normal; font-kerning: auto; font-optical-sizing: auto; font-feature-settings: normal; font-variation-settings: normal; font-variant-position: normal; font-stretch: normal; font-size: 13px; line-height: normal; font-family: &amp;quot;Helvetica Neue&amp;quot;;&quot; class=&quot;li1&quot;&gt;&lt;span style=&quot;font-variant-numeric: normal; font-variant-east-asian: normal; font-variant-alternates: normal; font-kerning: auto; font-optical-sizing: auto; font-feature-settings: normal; font-variation-settings: normal; font-variant-position: normal; font-stretch: normal; font-size: 9px; line-height: normal; font-family: Menlo;&quot; class=&quot;s1&quot;&gt;&lt;/span&gt;ID_Activité (PK)&lt;/li&gt;&lt;li style=&quot;margin: 0px; font-variant-numeric: normal; font-variant-east-asian: normal; font-variant-alternates: normal; font-kerning: auto; font-optical-sizing: auto; font-feature-settings: normal; font-variation-settings: normal; font-variant-position: normal; font-stretch: normal; font-size: 13px; line-height: normal; font-family: &amp;quot;Helvetica Neue&amp;quot;;&quot; class=&quot;li1&quot;&gt;&lt;span style=&quot;font-variant-numeric: normal; font-variant-east-asian: normal; font-variant-alternates: normal; font-kerning: auto; font-optical-sizing: auto; font-feature-settings: normal; font-variation-settings: normal; font-variant-position: normal; font-stretch: normal; font-size: 9px; line-height: normal; font-family: Menlo;&quot; class=&quot;s1&quot;&gt;&lt;/span&gt;Titre&lt;/li&gt;&lt;li style=&quot;margin: 0px; font-variant-numeric: normal; font-variant-east-asian: normal; font-variant-alternates: normal; font-kerning: auto; font-optical-sizing: auto; font-feature-settings: normal; font-variation-settings: normal; font-variant-position: normal; font-stretch: normal; font-size: 13px; line-height: normal; font-family: &amp;quot;Helvetica Neue&amp;quot;;&quot; class=&quot;li1&quot;&gt;&lt;span style=&quot;font-variant-numeric: normal; font-variant-east-asian: normal; font-variant-alternates: normal; font-kerning: auto; font-optical-sizing: auto; font-feature-settings: normal; font-variation-settings: normal; font-variant-position: normal; font-stretch: normal; font-size: 9px; line-height: normal; font-family: Menlo;&quot; class=&quot;s1&quot;&gt;&lt;/span&gt;Description&lt;/li&gt;&lt;li style=&quot;margin: 0px; font-variant-numeric: normal; font-variant-east-asian: normal; font-variant-alternates: normal; font-kerning: auto; font-optical-sizing: auto; font-feature-settings: normal; font-variation-settings: normal; font-variant-position: normal; font-stretch: normal; font-size: 13px; line-height: normal; font-family: &amp;quot;Helvetica Neue&amp;quot;;&quot; class=&quot;li1&quot;&gt;&lt;span style=&quot;font-variant-numeric: normal; font-variant-east-asian: normal; font-variant-alternates: normal; font-kerning: auto; font-optical-sizing: auto; font-feature-settings: normal; font-variation-settings: normal; font-variant-position: normal; font-stretch: normal; font-size: 9px; line-height: normal; font-family: Menlo;&quot; class=&quot;s1&quot;&gt;&lt;/span&gt;Date_Début&lt;/li&gt;&lt;li style=&quot;margin: 0px; font-variant-numeric: normal; font-variant-east-asian: normal; font-variant-alternates: normal; font-kerning: auto; font-optical-sizing: auto; font-feature-settings: normal; font-variation-settings: normal; font-variant-position: normal; font-stretch: normal; font-size: 13px; line-height: normal; font-family: &amp;quot;Helvetica Neue&amp;quot;;&quot; class=&quot;li1&quot;&gt;&lt;span style=&quot;font-variant-numeric: normal; font-variant-east-asian: normal; font-variant-alternates: normal; font-kerning: auto; font-optical-sizing: auto; font-feature-settings: normal; font-variation-settings: normal; font-variant-position: normal; font-stretch: normal; font-size: 9px; line-height: normal; font-family: Menlo;&quot; class=&quot;s1&quot;&gt;&lt;/span&gt;Date_Fin&lt;/li&gt;&lt;/ul&gt;&lt;/ul&gt;" style="text;html=1;align=center;verticalAlign=middle;resizable=0;points=[];autosize=1;strokeColor=none;fillColor=none;" vertex="1" parent="1">
          <mxGeometry x="-665" y="665" width="190" height="130" as="geometry" />
        </mxCell>
        <mxCell id="8WFV7_VvVoEUuy8R9E2Z-111" value="&lt;ul style=&quot;font-size: medium; text-align: start; text-wrap: wrap;&quot; class=&quot;ul1&quot;&gt;&lt;ul style=&quot;list-style-type: disc;&quot; class=&quot;ul1&quot;&gt;&lt;li style=&quot;margin: 0px; font-variant-numeric: normal; font-variant-east-asian: normal; font-variant-alternates: normal; font-kerning: auto; font-optical-sizing: auto; font-feature-settings: normal; font-variation-settings: normal; font-variant-position: normal; font-stretch: normal; font-size: 13px; line-height: normal; font-family: &amp;quot;Helvetica Neue&amp;quot;;&quot; class=&quot;li1&quot;&gt;&lt;span style=&quot;font-variant-numeric: normal; font-variant-east-asian: normal; font-variant-alternates: normal; font-kerning: auto; font-optical-sizing: auto; font-feature-settings: normal; font-variation-settings: normal; font-variant-position: normal; font-stretch: normal; font-size: 9px; line-height: normal; font-family: Menlo;&quot; class=&quot;s1&quot;&gt;&lt;/span&gt;ID_Participation (PK)&lt;/li&gt;&lt;li style=&quot;margin: 0px; font-variant-numeric: normal; font-variant-east-asian: normal; font-variant-alternates: normal; font-kerning: auto; font-optical-sizing: auto; font-feature-settings: normal; font-variation-settings: normal; font-variant-position: normal; font-stretch: normal; font-size: 13px; line-height: normal; font-family: &amp;quot;Helvetica Neue&amp;quot;;&quot; class=&quot;li1&quot;&gt;&lt;span style=&quot;font-variant-numeric: normal; font-variant-east-asian: normal; font-variant-alternates: normal; font-kerning: auto; font-optical-sizing: auto; font-feature-settings: normal; font-variation-settings: normal; font-variant-position: normal; font-stretch: normal; font-size: 9px; line-height: normal; font-family: Menlo;&quot; class=&quot;s1&quot;&gt;&lt;/span&gt;ID_Activité (FK)&lt;/li&gt;&lt;li style=&quot;margin: 0px; font-variant-numeric: normal; font-variant-east-asian: normal; font-variant-alternates: normal; font-kerning: auto; font-optical-sizing: auto; font-feature-settings: normal; font-variation-settings: normal; font-variant-position: normal; font-stretch: normal; font-size: 13px; line-height: normal; font-family: &amp;quot;Helvetica Neue&amp;quot;;&quot; class=&quot;li1&quot;&gt;&lt;span style=&quot;font-variant-numeric: normal; font-variant-east-asian: normal; font-variant-alternates: normal; font-kerning: auto; font-optical-sizing: auto; font-feature-settings: normal; font-variation-settings: normal; font-variant-position: normal; font-stretch: normal; font-size: 9px; line-height: normal; font-family: Menlo;&quot; class=&quot;s1&quot;&gt;&lt;/span&gt;ID_Employé (FK)&lt;/li&gt;&lt;li style=&quot;margin: 0px; font-variant-numeric: normal; font-variant-east-asian: normal; font-variant-alternates: normal; font-kerning: auto; font-optical-sizing: auto; font-feature-settings: normal; font-variation-settings: normal; font-variant-position: normal; font-stretch: normal; font-size: 13px; line-height: normal; font-family: &amp;quot;Helvetica Neue&amp;quot;;&quot; class=&quot;li1&quot;&gt;&lt;span style=&quot;font-variant-numeric: normal; font-variant-east-asian: normal; font-variant-alternates: normal; font-kerning: auto; font-optical-sizing: auto; font-feature-settings: normal; font-variation-settings: normal; font-variant-position: normal; font-stretch: normal; font-size: 9px; line-height: normal; font-family: Menlo;&quot; class=&quot;s1&quot;&gt;&lt;/span&gt;Date_Participation&lt;/li&gt;&lt;/ul&gt;&lt;/ul&gt;" style="text;html=1;align=center;verticalAlign=middle;resizable=0;points=[];autosize=1;strokeColor=none;fillColor=none;" vertex="1" parent="1">
          <mxGeometry x="-680" y="435" width="220" height="110" as="geometry" />
        </mxCell>
        <mxCell id="8WFV7_VvVoEUuy8R9E2Z-128" style="edgeStyle=orthogonalEdgeStyle;rounded=0;orthogonalLoop=1;jettySize=auto;html=1;" edge="1" parent="1" source="8WFV7_VvVoEUuy8R9E2Z-112">
          <mxGeometry relative="1" as="geometry">
            <mxPoint x="190" y="180" as="targetPoint" />
          </mxGeometry>
        </mxCell>
        <mxCell id="8WFV7_VvVoEUuy8R9E2Z-139" style="edgeStyle=orthogonalEdgeStyle;rounded=0;orthogonalLoop=1;jettySize=auto;html=1;" edge="1" parent="1" source="8WFV7_VvVoEUuy8R9E2Z-112" target="8WFV7_VvVoEUuy8R9E2Z-35">
          <mxGeometry relative="1" as="geometry" />
        </mxCell>
        <mxCell id="8WFV7_VvVoEUuy8R9E2Z-150" style="edgeStyle=orthogonalEdgeStyle;rounded=0;orthogonalLoop=1;jettySize=auto;html=1;" edge="1" parent="1" source="8WFV7_VvVoEUuy8R9E2Z-112" target="8WFV7_VvVoEUuy8R9E2Z-111">
          <mxGeometry relative="1" as="geometry" />
        </mxCell>
        <mxCell id="8WFV7_VvVoEUuy8R9E2Z-112" value="&lt;ul style=&quot;font-size: medium; text-align: start; text-wrap: wrap;&quot; class=&quot;ul1&quot;&gt;&lt;ul style=&quot;list-style-type: disc;&quot; class=&quot;ul1&quot;&gt;&lt;li style=&quot;margin: 0px; font-variant-numeric: normal; font-variant-east-asian: normal; font-variant-alternates: normal; font-kerning: auto; font-optical-sizing: auto; font-feature-settings: normal; font-variation-settings: normal; font-variant-position: normal; font-stretch: normal; font-size: 13px; line-height: normal; font-family: &amp;quot;Helvetica Neue&amp;quot;;&quot; class=&quot;li1&quot;&gt;&lt;span style=&quot;font-variant-numeric: normal; font-variant-east-asian: normal; font-variant-alternates: normal; font-kerning: auto; font-optical-sizing: auto; font-feature-settings: normal; font-variation-settings: normal; font-variant-position: normal; font-stretch: normal; font-size: 9px; line-height: normal; font-family: Menlo;&quot; class=&quot;s1&quot;&gt;&lt;/span&gt;ID_Employé (PK)&lt;/li&gt;&lt;li style=&quot;margin: 0px; font-variant-numeric: normal; font-variant-east-asian: normal; font-variant-alternates: normal; font-kerning: auto; font-optical-sizing: auto; font-feature-settings: normal; font-variation-settings: normal; font-variant-position: normal; font-stretch: normal; font-size: 13px; line-height: normal; font-family: &amp;quot;Helvetica Neue&amp;quot;;&quot; class=&quot;li1&quot;&gt;&lt;span style=&quot;font-variant-numeric: normal; font-variant-east-asian: normal; font-variant-alternates: normal; font-kerning: auto; font-optical-sizing: auto; font-feature-settings: normal; font-variation-settings: normal; font-variant-position: normal; font-stretch: normal; font-size: 9px; line-height: normal; font-family: Menlo;&quot; class=&quot;s1&quot;&gt;&lt;/span&gt;Nom&lt;/li&gt;&lt;li style=&quot;margin: 0px; font-variant-numeric: normal; font-variant-east-asian: normal; font-variant-alternates: normal; font-kerning: auto; font-optical-sizing: auto; font-feature-settings: normal; font-variation-settings: normal; font-variant-position: normal; font-stretch: normal; font-size: 13px; line-height: normal; font-family: &amp;quot;Helvetica Neue&amp;quot;;&quot; class=&quot;li1&quot;&gt;&lt;span style=&quot;font-variant-numeric: normal; font-variant-east-asian: normal; font-variant-alternates: normal; font-kerning: auto; font-optical-sizing: auto; font-feature-settings: normal; font-variation-settings: normal; font-variant-position: normal; font-stretch: normal; font-size: 9px; line-height: normal; font-family: Menlo;&quot; class=&quot;s1&quot;&gt;&lt;/span&gt;Prénom&lt;/li&gt;&lt;li style=&quot;margin: 0px; font-variant-numeric: normal; font-variant-east-asian: normal; font-variant-alternates: normal; font-kerning: auto; font-optical-sizing: auto; font-feature-settings: normal; font-variation-settings: normal; font-variant-position: normal; font-stretch: normal; font-size: 13px; line-height: normal; font-family: &amp;quot;Helvetica Neue&amp;quot;;&quot; class=&quot;li1&quot;&gt;&lt;span style=&quot;font-variant-numeric: normal; font-variant-east-asian: normal; font-variant-alternates: normal; font-kerning: auto; font-optical-sizing: auto; font-feature-settings: normal; font-variation-settings: normal; font-variant-position: normal; font-stretch: normal; font-size: 9px; line-height: normal; font-family: Menlo;&quot; class=&quot;s1&quot;&gt;&lt;/span&gt;Email&lt;/li&gt;&lt;/ul&gt;&lt;/ul&gt;" style="text;html=1;align=center;verticalAlign=middle;resizable=0;points=[];autosize=1;strokeColor=none;fillColor=none;" vertex="1" parent="1">
          <mxGeometry x="-130" y="460" width="200" height="110" as="geometry" />
        </mxCell>
        <mxCell id="8WFV7_VvVoEUuy8R9E2Z-121" value="1,N" style="text;html=1;align=center;verticalAlign=middle;resizable=0;points=[];autosize=1;strokeColor=none;fillColor=none;" vertex="1" parent="1">
          <mxGeometry x="-330" y="78" width="40" height="30" as="geometry" />
        </mxCell>
        <mxCell id="8WFV7_VvVoEUuy8R9E2Z-122" style="edgeStyle=orthogonalEdgeStyle;rounded=0;orthogonalLoop=1;jettySize=auto;html=1;entryX=0.102;entryY=0.016;entryDx=0;entryDy=0;entryPerimeter=0;" edge="1" parent="1" source="8WFV7_VvVoEUuy8R9E2Z-100" target="8WFV7_VvVoEUuy8R9E2Z-92">
          <mxGeometry relative="1" as="geometry" />
        </mxCell>
        <mxCell id="8WFV7_VvVoEUuy8R9E2Z-123" value="1,N" style="text;html=1;align=center;verticalAlign=middle;resizable=0;points=[];autosize=1;strokeColor=none;fillColor=none;" vertex="1" parent="1">
          <mxGeometry x="-453" y="190" width="40" height="30" as="geometry" />
        </mxCell>
        <mxCell id="8WFV7_VvVoEUuy8R9E2Z-127" value="1,N" style="text;html=1;align=center;verticalAlign=middle;resizable=0;points=[];autosize=1;strokeColor=none;fillColor=none;" vertex="1" parent="1">
          <mxGeometry x="280" y="-12" width="40" height="30" as="geometry" />
        </mxCell>
        <mxCell id="8WFV7_VvVoEUuy8R9E2Z-129" value="1,N" style="text;html=1;align=center;verticalAlign=middle;resizable=0;points=[];autosize=1;strokeColor=none;fillColor=none;" vertex="1" parent="1">
          <mxGeometry x="140" y="430" width="40" height="30" as="geometry" />
        </mxCell>
        <mxCell id="8WFV7_VvVoEUuy8R9E2Z-133" value="1,N" style="text;html=1;align=center;verticalAlign=middle;resizable=0;points=[];autosize=1;strokeColor=none;fillColor=none;" vertex="1" parent="1">
          <mxGeometry x="100" y="200" width="40" height="30" as="geometry" />
        </mxCell>
        <mxCell id="8WFV7_VvVoEUuy8R9E2Z-135" value="1,N" style="text;html=1;align=center;verticalAlign=middle;resizable=0;points=[];autosize=1;strokeColor=none;fillColor=none;" vertex="1" parent="1">
          <mxGeometry x="760" y="488" width="40" height="30" as="geometry" />
        </mxCell>
        <mxCell id="8WFV7_VvVoEUuy8R9E2Z-138" value="1,N" style="text;html=1;align=center;verticalAlign=middle;resizable=0;points=[];autosize=1;strokeColor=none;fillColor=none;" vertex="1" parent="1">
          <mxGeometry x="380" y="378" width="40" height="30" as="geometry" />
        </mxCell>
        <mxCell id="8WFV7_VvVoEUuy8R9E2Z-140" value="1,N" style="text;html=1;align=center;verticalAlign=middle;resizable=0;points=[];autosize=1;strokeColor=none;fillColor=none;" vertex="1" parent="1">
          <mxGeometry x="390" y="770" width="40" height="30" as="geometry" />
        </mxCell>
        <mxCell id="8WFV7_VvVoEUuy8R9E2Z-141" style="edgeStyle=orthogonalEdgeStyle;rounded=0;orthogonalLoop=1;jettySize=auto;html=1;entryX=0.613;entryY=-0.022;entryDx=0;entryDy=0;entryPerimeter=0;" edge="1" parent="1" source="8WFV7_VvVoEUuy8R9E2Z-112" target="8WFV7_VvVoEUuy8R9E2Z-36">
          <mxGeometry relative="1" as="geometry" />
        </mxCell>
        <mxCell id="8WFV7_VvVoEUuy8R9E2Z-142" value="1,N" style="text;html=1;align=center;verticalAlign=middle;resizable=0;points=[];autosize=1;strokeColor=none;fillColor=none;" vertex="1" parent="1">
          <mxGeometry x="50" y="785" width="40" height="30" as="geometry" />
        </mxCell>
        <mxCell id="8WFV7_VvVoEUuy8R9E2Z-144" value="1,N" style="text;html=1;align=center;verticalAlign=middle;resizable=0;points=[];autosize=1;strokeColor=none;fillColor=none;" vertex="1" parent="1">
          <mxGeometry x="90" y="1018" width="40" height="30" as="geometry" />
        </mxCell>
        <mxCell id="8WFV7_VvVoEUuy8R9E2Z-146" value="1,N" style="text;html=1;align=center;verticalAlign=middle;resizable=0;points=[];autosize=1;strokeColor=none;fillColor=none;" vertex="1" parent="1">
          <mxGeometry x="-280" y="1028" width="40" height="30" as="geometry" />
        </mxCell>
        <mxCell id="8WFV7_VvVoEUuy8R9E2Z-148" value="1,N" style="text;html=1;align=center;verticalAlign=middle;resizable=0;points=[];autosize=1;strokeColor=none;fillColor=none;" vertex="1" parent="1">
          <mxGeometry x="-10" y="1080" width="40" height="30" as="geometry" />
        </mxCell>
        <mxCell id="8WFV7_VvVoEUuy8R9E2Z-149" style="edgeStyle=orthogonalEdgeStyle;rounded=0;orthogonalLoop=1;jettySize=auto;html=1;entryX=0.992;entryY=0.345;entryDx=0;entryDy=0;entryPerimeter=0;" edge="1" parent="1" source="8WFV7_VvVoEUuy8R9E2Z-110" target="8WFV7_VvVoEUuy8R9E2Z-111">
          <mxGeometry relative="1" as="geometry" />
        </mxCell>
        <mxCell id="8WFV7_VvVoEUuy8R9E2Z-151" value="1,N" style="text;html=1;align=center;verticalAlign=middle;resizable=0;points=[];autosize=1;strokeColor=none;fillColor=none;" vertex="1" parent="1">
          <mxGeometry x="-200" y="480" width="40" height="30" as="geometry" />
        </mxCell>
        <mxCell id="8WFV7_VvVoEUuy8R9E2Z-152" value="1,N" style="text;html=1;align=center;verticalAlign=middle;resizable=0;points=[];autosize=1;strokeColor=none;fillColor=none;" vertex="1" parent="1">
          <mxGeometry x="-580" y="580" width="40" height="30" as="geometry" />
        </mxCell>
      </root>
    </mxGraphModel>
  </diagram>
</mxfile>
